<?xml version="1.0" encoding="utf-8"?>
<!-- Generator: Adobe Illustrator 16.0.0, SVG Export Plug-In . SVG Version: 6.00 Build 0)  -->
<!DOCTYPE svg PUBLIC "-//W3C//DTD SVG 1.1//EN" "http://www.w3.org/Graphics/SVG/1.1/DTD/svg11.dtd">
<svg version="1.1" id="Ebene_1" xmlns="http://www.w3.org/2000/svg" xmlns:xlink="http://www.w3.org/1999/xlink" x="0px" y="0px"
	 width="2834.65px" height="2834.65px" viewBox="0 0 2834.65 2834.65" enable-background="new 0 0 2834.65 2834.65"
	 xml:space="preserve">
<g>
	<line fill="none" stroke="#D3A86A" stroke-width="11.1222" x1="2112.115" y1="1420.672" x2="2668.224" y2="1420.672"/>
	<line fill="none" stroke="#D3A86A" stroke-width="11.1222" x1="165.74" y1="1420.672" x2="721.848" y2="1420.672"/>
	<g>
		<path fill="#D3A86A" d="M2041.19,1396.534c-3.638-33.047-14.229-65.306-30.084-94.578c-15.807-29.353-36.878-55.854-61.831-77.93
			c-24.9-22.102-53.791-39.724-85.019-50.966c-15.641-5.596-31.823-9.586-48.222-11.757l-6.166-0.816
			c-2.063-0.22-4.152-0.354-6.165-0.516c-4.125-0.408-8.251-0.543-12.381-0.736c-2.063-0.134-4.126-0.134-6.192-0.134l-6.189-0.026
			c-4.129,0.134-8.254,0.188-12.384,0.489c-16.425,0.978-32.716,3.34-48.657,6.977c-15.969,3.722-31.555,8.583-46.732,14.421
			c-30.304,11.73-58.841,27.263-85.288,44.993c-26.501,17.864-51.105,37.823-73.723,59.303
			c-22.672,21.451-43.716,43.935-63.702,66.633c-36.769,41.738-71.238,85.306-107.775,126.959
			c-18.245,20.801-37.065,41.163-56.831,60.445c-19.865,19.169-40.774,37.254-62.93,53.656
			c-22.157,16.397-45.549,31.062-70.176,43.281c-24.645,12.164-50.549,21.725-77.283,27.645c-13.345,2.878-26.909,4.94-40.541,5.918
			c-13.667,1.032-27.191,1.032-40.675-0.381c-26.963-2.933-53.544-10.86-78.077-22.864c-26.546-13.25-50.711-31.551-69.925-53.979
			c-9.569-11.242-17.771-23.622-24.219-36.711c-1.753-3.261-3.027-6.627-4.506-9.996c-0.749-1.628-1.305-3.421-1.968-5.103
			l-1.834-5.161l-1.561-5.21c-0.476-1.74-1.116-3.475-1.453-5.27l-1.223-5.323c-0.188-0.868-0.422-1.739-0.556-2.604l-0.435-2.717
			l-0.897-5.538c-0.242-1.794-0.363-3.642-0.555-5.543c-0.135-1.789-0.449-3.689-0.476-5.537l-0.162-5.592l-0.053-2.771l0.053-2.771
			c0.054-1.901,0.081-3.744,0.188-5.646c0.341-3.694,0.529-7.438,1.09-11.134c0.39-3.748,1.192-7.385,1.803-11.08
			c0.87-3.637,1.587-7.331,2.704-10.914c1.941-7.277,4.534-14.336,7.479-21.305c11.865-27.747,30.671-52.62,53.1-73.556
			c22.417-21.017,48.361-38.424,76.136-51.756c13.933-6.515,28.335-12.434,43.07-17.188c14.689-4.78,29.662-8.717,44.828-11.783
			c26.882-5.542,59.862-8.798,94.372-7.66c34.528,1.113,70.508,6.87,103.322,16.237c32.815,9.399,62.249,22.375,85.301,34.649
			c23.138,12.272,39.877,23.896,49.137,29.272c-13.932-11.242-29.613-21.807-45.796-31.061c-16.209-9.318-32.922-17.3-48.742-24.062
			c12.205,4.564,26.057,10.264,39.823,17.327c-12.941-7.009-27.671-14.093-40.487-19.009c5.282,2.036,10.618,4.18,15.152,6
			c4.506,1.875,8.201,3.367,10.317,4.044c-4.031-1.928-8.43-4.044-13.075-6c-2.359-1.004-4.749-1.982-7.139-2.987l-3.556-1.439
			c-1.237-0.435-2.461-0.897-3.654-1.359c-4.834-1.708-9.475-3.502-13.874-4.834c-4.386-1.354-8.336-2.793-11.704-3.636
			c-1.941-0.596-5.703-1.655-10.345-2.96c-2.363-0.596-4.918-1.224-7.619-1.901c-2.704-0.623-5.524-1.413-8.389-1.982
			c-5.73-1.251-11.516-2.551-16.605-3.449c-2.524-0.489-4.833-0.95-6.87-1.332c-2.022-0.381-3.722-0.704-5.067-0.923
			c13.744,1.955,29.232,4.968,43.855,8.744c14.623,3.803,28.469,8.202,39.294,11.896c-4.484-1.794-8.964-3.587-13.457-5.242
			c-4.506-1.52-8.933-3.233-13.398-4.699c2.82,0.708,6.215,1.901,9.923,3.067c1.834,0.574,3.717,1.197,5.631,1.821
			c1.902,0.681,3.789,1.359,5.65,2.036c7.48,2.609,14.094,5.376,16.959,6.192c-2.771-1.166-5.529-2.336-8.201-3.475
			c-2.691-1.139-5.471-2.09-8.148-3.152c-5.363-2.143-10.78-3.991-16.237-5.78c-2.704-0.978-5.443-1.82-8.229-2.663
			c-2.753-0.87-5.537-1.681-8.376-2.579c-2.825-0.789-5.69-1.574-8.583-2.363c-1.479-0.435-2.918-0.815-4.426-1.219
			c-1.479-0.381-2.973-0.762-4.506-1.117c-19.631-4.915-37.648-8.196-56.912-10.071c11.538,0.924,24.967,2.879,37.456,5.103
			c3.112,0.569,6.192,1.139,9.139,1.712c2.986,0.516,5.811,1.193,8.542,1.79c2.7,0.569,5.278,1.031,7.641,1.605
			c2.364,0.542,4.565,1.058,6.547,1.466c-2.596-0.763-5.202-1.525-7.82-2.282c-2.69-0.65-5.39-1.305-8.094-1.982
			c-5.363-1.359-10.901-2.363-16.317-3.475c1.327,0.188,2.143,0.242,2.417,0.188c-4.78-1.085-11.174-2.25-16.215-3.121
			c-0.053-0.081-0.268-0.193-0.448-0.273c-0.027,0.026-0.054,0.026-0.08,0.026l-3.978-0.812c-6.134-0.896-12.313-1.874-18.519-2.502
			c-6.188-0.731-12.448-1.167-18.627-1.601c-3.08-0.27-6.188-0.27-9.26-0.462c-3.08-0.054-6.134-0.269-9.206-0.242
			c-6.08,0-12.147-0.107-18.071,0.188c-12.649,0.328-24.734,1.224-36.585,2.256c-2.919,0.349-5.892,0.677-8.812,0.978
			c-1.453,0.161-2.892,0.295-4.372,0.489c-1.439,0.215-2.892,0.408-4.305,0.596c-2.892,0.381-5.784,0.816-8.677,1.193
			c-2.838,0.516-5.703,0.978-8.538,1.439c-5.73,0.897-11.34,2.202-17.012,3.394c-2.866,0.543-5.677,1.332-8.515,2.01
			c-2.808,0.762-5.672,1.412-8.511,2.201c-2.798,0.843-5.637,1.682-8.471,2.498c-1.426,0.435-2.865,0.843-4.291,1.305
			c-1.386,0.489-2.798,0.978-4.224,1.439c-2.838,0.978-5.731,1.982-8.592,2.987c-2.838,1.112-5.677,2.251-8.596,3.395
			c-28.77,11.538-56.221,26.281-81.189,44.994c-3.166,2.278-6.192,4.78-9.287,7.192c-2.972,2.502-6.053,4.919-8.945,7.579
			c-5.99,5.161-11.623,10.699-17.133,16.403c-5.476,5.78-10.726,11.784-15.712,18.138c-4.861,6.381-9.609,12.977-13.82,19.954
			c-1.031,1.551-1.941,3.206-2.865,4.834c-0.91,1.632-1.915,3.179-2.78,4.888c-1.687,3.34-3.534,6.627-5.054,10.076
			c-3.282,6.734-6.041,13.793-8.484,20.922l-1.727,5.377c-0.61,1.848-1.031,3.69-1.52,5.484c-1.058,3.636-1.789,7.331-2.619,11.08
			c-1.359,7.439-2.498,14.932-2.893,22.537c-1.058,15.151,0.215,30.465,3.609,45.289c3.368,14.829,8.853,29.11,16.022,42.523
			c7.116,13.361,16.103,25.742,26.165,37.037c10.059,11.297,21.327,21.453,33.398,30.524c24.178,18.139,51.688,31.496,80.498,39.913
			c13.56,3.964,27.411,6.682,41.366,8.147c13.932,1.52,27.999,1.467,41.792,0.435c27.641-2.008,54.729-8.094,80.414-17.16
			c25.663-9.071,50.074-21.071,73.1-34.923c23.026-13.9,44.707-29.648,65.208-46.647c20.488-17.054,39.932-35.299,58.217-54.473
			c18.412-19.169,36.007-38.989,53.249-59.142c34.515-40.279,67.71-81.879,103.825-121.576
			c21.017-23.026,43.526-46.165,67.885-67.804c12.218-10.78,25.035-21.125,38.339-30.927c13.25-9.829,27.102-19.035,41.383-27.51
			c7.112-4.313,14.39-8.224,21.722-12.134c7.412-3.749,14.883-7.471,22.43-10.779c7.551-3.422,15.259-6.413,22.972-9.318
			c7.82-2.767,15.614-5.431,23.487-7.628c7.901-2.309,15.888-4.103,23.869-5.838c7.981-1.466,15.968-2.852,24.004-3.722
			c8.013-1.004,16.074-1.412,24.057-1.681c7.986-0.081,15.914-0.054,23.842,0.569c5.758,0.3,11.838,1.166,18.219,1.955
			c3.18,0.542,6.439,1.139,9.748,1.74c1.633,0.296,3.314,0.704,4.974,1.085c1.708,0.435,3.421,0.812,5.13,1.246
			c13.631,3.422,27.968,8.421,42.389,15.179c14.361,6.762,28.697,15.291,42.275,25.308c13.631,10.049,26.56,21.559,38.177,34.133
			c11.624,12.546,22.049,26.066,30.905,40.025c8.905,13.927,16.21,28.268,21.968,42.222c5.807,13.959,9.964,27.591,13.003,40.106
			c0.709,3.179,1.359,6.247,1.982,9.259c0.682,2.96,1.031,5.946,1.547,8.771c0.221,1.439,0.436,2.798,0.683,4.184
			c0.241,1.386,0.349,2.74,0.515,4.072c0.323,2.69,0.623,5.269,0.924,7.739c-4.13-53.249-26.801-106.116-62.186-147.961l-3.31-3.856
			c-1.144-1.3-2.229-2.632-3.366-3.91l-7.009-7.493l-7.273-7.197c-1.251-1.193-2.529-2.331-3.776-3.475l-3.802-3.449
			c-10.237-9.04-21.044-17.322-32.366-24.734c-22.811-14.528-47.518-25.77-73.1-31.936c14.012,3.313,27.833,7.928,41.137,13.793
			c13.282,5.924,26.043,13.062,38.154,21.236c24.327,16.317,46.08,36.685,64.057,60.091c9.013,11.649,17.048,24.057,24.164,37.039
			c7.059,12.923,13.09,26.501,17.843,40.482c9.474,27.945,14.116,57.594,12.896,87.014c-1.413,29.385-8.853,58.384-21.124,85.104
			c-6.141,13.413-13.525,26.174-21.915,38.232c-8.39,12.111-17.788,23.514-27.94,34.104c-10.156,10.588-21.183,20.362-32.859,29.161
			c-11.698,8.798-24.004,16.672-36.872,23.515c-25.631,13.852-53.438,23.192-81.841,27.698c13.359-2.063,26.448-5.161,39.318-9.341
			c12.788-4.184,25.254-9.394,37.307-15.425c12.059-5.974,23.573-13.084,34.649-20.798c10.972-7.712,21.559-16.183,31.308-25.522
			c9.748-9.233,18.954-19.175,27.289-29.653c8.311-10.646,15.861-21.779,22.512-33.456l4.859-8.798l4.4-9.067l1.084-2.281
			l0.978-2.279l1.955-4.673c0.655-1.52,1.358-3.04,1.929-4.613l1.766-4.726c2.391-6.247,4.238-12.655,6.193-19.116l2.418-9.668
			c0.783-3.26,1.273-6.569,1.923-9.829c2.336-13.143,3.642-26.501,3.533-39.876c-0.054-13.333-1.305-26.663-3.587-39.806
			l-1.901-9.856c-0.785-3.233-1.627-6.467-2.386-9.722c-0.762-3.26-1.874-6.435-2.771-9.614l-1.468-4.78l-1.653-4.749l-1.66-4.726
			l-0.868-2.363l-0.925-2.336l-3.798-9.26l-4.211-9.094l-1.058-2.255l-1.197-2.197l-2.305-4.453l-2.337-4.457l-2.524-4.314
			c-1.687-2.852-3.232-5.838-5.106-8.609l-5.432-8.39l-5.812-8.201c-7.847-10.779-16.505-20.99-25.738-30.572
			c-18.685-18.981-39.836-35.572-63.131-48.28c-5.785-3.26-11.762-6.058-17.734-8.937l-9.18-3.852
			c-0.731-0.354-1.521-0.655-2.251-0.951l-2.363-0.843l-4.672-1.74l-4.614-1.627l-4.78-1.439l-4.723-1.493l-2.39-0.677l-2.39-0.627
			l-9.614-2.332l-9.721-1.821c-26.012-4.425-52.733-4.398-78.854-0.789c-26.151,3.561-51.701,10.699-76.14,20.475
			c-24.465,9.722-47.846,21.995-70.001,35.954c-22.156,13.981-43.065,29.622-62.89,46.513c-2.498,2.09-4.941,4.206-7.358,6.381
			c-2.47,2.144-4.86,4.318-7.251,6.516l-3.583,3.26l-3.582,3.368l-7.009,6.677c-4.722,4.399-9.287,9.071-13.847,13.605
			c-4.673,4.538-9.071,9.206-13.524,13.852c-35.733,37.253-68.387,76.624-101.161,114.761
			c37.761-45.061,76.207-92.852,120.712-137.33c22.188-22.317,46.217-43.361,72.202-62.315
			c13.063-9.476,26.582-18.385,40.569-26.641c13.985-8.277,28.482-15.802,43.472-22.398c29.923-13.309,61.913-22.918,94.875-26.855
			c16.457-1.875,33.129-2.471,49.747-1.412c16.617,1.193,33.128,3.937,49.146,8.551c32.151,9.206,62.239,25.282,88.44,46.137
			c26.204,20.905,48.661,46.594,65.955,75.27c17.273,28.645,29.438,60.495,34.789,93.408c2.686,16.426,3.662,33.128,2.793,49.675
			c-0.87,16.618-3.584,33.021-8.09,48.935c-8.878,31.878-24.604,61.527-44.724,87.324c-20.12,25.797-44.747,47.791-71.983,65.06
			c-27.264,17.219-57.239,29.6-88.252,36.115c-15.394,3.26-31.115,5.054-46.782,5.161c-3.884,0-7.794-0.166-11.677-0.166
			c-3.937-0.162-7.793-0.597-11.676-0.866c-1.929-0.111-3.884-0.326-5.758-0.6l-5.813-0.704c-3.829-0.597-7.626-1.14-11.456-1.848
			c-15.206-2.88-30.115-6.843-44.505-11.893c-14.395-5.048-28.376-11.026-41.873-17.649c-26.936-13.362-52.082-29.271-75.758-45.997
			c-28.838-20.206-59.303-44.752-82.387-62.997c22.376,18.03,45.213,36.438,69.271,54.086c24.03,17.543,49.284,34.488,76.354,48.989
			c6.709,3.583,13.659,7.005,20.613,10.318c7.059,3.201,14.116,6.354,21.313,9.121c7.251,2.933,14.582,5.435,22.049,7.878
			c7.47,2.278,14.963,4.399,22.621,6.134c7.654,1.848,15.422,3.153,23.188,4.346l5.865,0.763c1.955,0.215,3.963,0.488,5.918,0.596
			c3.938,0.323,7.874,0.704,11.812,0.87c15.833,0.758,31.797-0.22,47.55-2.825c31.523-4.995,62.234-16.295,90.309-32.479
			c28.08-16.183,53.522-37.308,74.781-62.343c21.184-24.926,38.178-53.817,48.662-85.211c5.215-15.693,8.825-31.931,10.646-48.388
			C2043.064,1429.743,2043.011,1413.018,2041.19,1396.534"/>
		<path fill="none" stroke="#D3A86A" stroke-width="0.6951" stroke-miterlimit="10" d="M2041.19,1396.534
			c-3.638-33.047-14.229-65.306-30.084-94.578c-15.807-29.353-36.878-55.854-61.831-77.93c-24.9-22.102-53.791-39.724-85.019-50.966
			c-15.641-5.596-31.823-9.586-48.222-11.757l-6.166-0.816c-2.063-0.22-4.152-0.354-6.165-0.516
			c-4.125-0.408-8.251-0.543-12.381-0.736c-2.063-0.134-4.126-0.134-6.192-0.134l-6.189-0.026
			c-4.129,0.134-8.254,0.188-12.384,0.489c-16.425,0.978-32.716,3.34-48.657,6.977c-15.969,3.722-31.555,8.583-46.732,14.421
			c-30.304,11.73-58.841,27.263-85.288,44.993c-26.501,17.864-51.105,37.823-73.723,59.303
			c-22.672,21.451-43.716,43.935-63.702,66.633c-36.769,41.738-71.238,85.306-107.775,126.959
			c-18.245,20.801-37.065,41.163-56.831,60.445c-19.865,19.169-40.774,37.254-62.93,53.656
			c-22.157,16.397-45.549,31.062-70.176,43.281c-24.645,12.164-50.549,21.725-77.283,27.645c-13.345,2.878-26.909,4.94-40.541,5.918
			c-13.667,1.032-27.191,1.032-40.675-0.381c-26.963-2.933-53.544-10.86-78.077-22.864c-26.546-13.25-50.711-31.551-69.925-53.979
			c-9.569-11.242-17.771-23.622-24.219-36.711c-1.753-3.261-3.027-6.627-4.506-9.996c-0.749-1.628-1.305-3.421-1.968-5.103
			l-1.834-5.161l-1.561-5.21c-0.476-1.74-1.116-3.475-1.453-5.27l-1.223-5.323c-0.188-0.868-0.422-1.739-0.556-2.604l-0.435-2.717
			l-0.897-5.538c-0.242-1.794-0.363-3.642-0.555-5.543c-0.135-1.789-0.449-3.689-0.476-5.537l-0.162-5.592l-0.053-2.771l0.053-2.771
			c0.054-1.901,0.081-3.744,0.188-5.646c0.341-3.694,0.529-7.438,1.09-11.134c0.39-3.748,1.192-7.385,1.803-11.08
			c0.87-3.637,1.587-7.331,2.704-10.914c1.941-7.277,4.534-14.336,7.479-21.305c11.865-27.747,30.671-52.62,53.1-73.556
			c22.417-21.017,48.361-38.424,76.136-51.756c13.933-6.515,28.335-12.434,43.07-17.188c14.689-4.78,29.662-8.717,44.828-11.783
			c26.882-5.542,59.862-8.798,94.372-7.66c34.528,1.113,70.508,6.87,103.322,16.237c32.815,9.399,62.249,22.375,85.301,34.649
			c23.138,12.272,39.877,23.896,49.137,29.272c-13.932-11.242-29.613-21.807-45.796-31.061c-16.209-9.318-32.922-17.3-48.742-24.062
			c12.205,4.564,26.057,10.264,39.823,17.327c-12.941-7.009-27.671-14.093-40.487-19.009c5.282,2.036,10.618,4.18,15.152,6
			c4.506,1.875,8.201,3.367,10.317,4.044c-4.031-1.928-8.43-4.044-13.075-6c-2.359-1.004-4.749-1.982-7.139-2.987l-3.556-1.439
			c-1.237-0.435-2.461-0.897-3.654-1.359c-4.834-1.708-9.475-3.502-13.874-4.834c-4.386-1.354-8.336-2.793-11.704-3.636
			c-1.941-0.596-5.703-1.655-10.345-2.96c-2.363-0.596-4.918-1.224-7.619-1.901c-2.704-0.623-5.524-1.413-8.389-1.982
			c-5.73-1.251-11.516-2.551-16.605-3.449c-2.524-0.489-4.833-0.95-6.87-1.332c-2.022-0.381-3.722-0.704-5.067-0.923
			c13.744,1.955,29.232,4.968,43.855,8.744c14.623,3.803,28.469,8.202,39.294,11.896c-4.484-1.794-8.964-3.587-13.457-5.242
			c-4.506-1.52-8.933-3.233-13.398-4.699c2.82,0.708,6.215,1.901,9.923,3.067c1.834,0.574,3.717,1.197,5.631,1.821
			c1.902,0.681,3.789,1.359,5.65,2.036c7.48,2.609,14.094,5.376,16.959,6.192c-2.771-1.166-5.529-2.336-8.201-3.475
			c-2.691-1.139-5.471-2.09-8.148-3.152c-5.363-2.143-10.78-3.991-16.237-5.78c-2.704-0.978-5.443-1.82-8.229-2.663
			c-2.753-0.87-5.537-1.681-8.376-2.579c-2.825-0.789-5.69-1.574-8.583-2.363c-1.479-0.435-2.918-0.815-4.426-1.219
			c-1.479-0.381-2.973-0.762-4.506-1.117c-19.631-4.915-37.648-8.196-56.912-10.071c11.538,0.924,24.967,2.879,37.456,5.103
			c3.112,0.569,6.192,1.139,9.139,1.712c2.986,0.516,5.811,1.193,8.542,1.79c2.7,0.569,5.278,1.031,7.641,1.605
			c2.364,0.542,4.565,1.058,6.547,1.466c-2.596-0.763-5.202-1.525-7.82-2.282c-2.69-0.65-5.39-1.305-8.094-1.982
			c-5.363-1.359-10.901-2.363-16.317-3.475c1.327,0.188,2.143,0.242,2.417,0.188c-4.78-1.085-11.174-2.25-16.215-3.121
			c-0.053-0.081-0.268-0.193-0.448-0.273c-0.027,0.026-0.054,0.026-0.08,0.026l-3.978-0.812c-6.134-0.896-12.313-1.874-18.519-2.502
			c-6.188-0.731-12.448-1.167-18.627-1.601c-3.08-0.27-6.188-0.27-9.26-0.462c-3.08-0.054-6.134-0.269-9.206-0.242
			c-6.08,0-12.147-0.107-18.071,0.188c-12.649,0.328-24.734,1.224-36.585,2.256c-2.919,0.349-5.892,0.677-8.812,0.978
			c-1.453,0.161-2.892,0.295-4.372,0.489c-1.439,0.215-2.892,0.408-4.305,0.596c-2.892,0.381-5.784,0.816-8.677,1.193
			c-2.838,0.516-5.703,0.978-8.538,1.439c-5.73,0.897-11.34,2.202-17.012,3.394c-2.866,0.543-5.677,1.332-8.515,2.01
			c-2.808,0.762-5.672,1.412-8.511,2.201c-2.798,0.843-5.637,1.682-8.471,2.498c-1.426,0.435-2.865,0.843-4.291,1.305
			c-1.386,0.489-2.798,0.978-4.224,1.439c-2.838,0.978-5.731,1.982-8.592,2.987c-2.838,1.112-5.677,2.251-8.596,3.395
			c-28.77,11.538-56.221,26.281-81.189,44.994c-3.166,2.278-6.192,4.78-9.287,7.192c-2.972,2.502-6.053,4.919-8.945,7.579
			c-5.99,5.161-11.623,10.699-17.133,16.403c-5.476,5.78-10.726,11.784-15.712,18.138c-4.861,6.381-9.609,12.977-13.82,19.954
			c-1.031,1.551-1.941,3.206-2.865,4.834c-0.91,1.632-1.915,3.179-2.78,4.888c-1.687,3.34-3.534,6.627-5.054,10.076
			c-3.282,6.734-6.041,13.793-8.484,20.922l-1.727,5.377c-0.61,1.848-1.031,3.69-1.52,5.484c-1.058,3.636-1.789,7.331-2.619,11.08
			c-1.359,7.439-2.498,14.932-2.893,22.537c-1.058,15.151,0.215,30.465,3.609,45.289c3.368,14.829,8.853,29.11,16.022,42.523
			c7.116,13.361,16.103,25.742,26.165,37.037c10.059,11.297,21.327,21.453,33.398,30.524c24.178,18.139,51.688,31.496,80.498,39.913
			c13.56,3.964,27.411,6.682,41.366,8.147c13.932,1.52,27.999,1.467,41.792,0.435c27.641-2.008,54.729-8.094,80.414-17.16
			c25.663-9.071,50.074-21.071,73.1-34.923c23.026-13.9,44.707-29.648,65.208-46.647c20.488-17.054,39.932-35.299,58.217-54.473
			c18.412-19.169,36.007-38.989,53.249-59.142c34.515-40.279,67.71-81.879,103.825-121.576
			c21.017-23.026,43.526-46.165,67.885-67.804c12.218-10.78,25.035-21.125,38.339-30.927c13.25-9.829,27.102-19.035,41.383-27.51
			c7.112-4.313,14.39-8.224,21.722-12.134c7.412-3.749,14.883-7.471,22.43-10.779c7.551-3.422,15.259-6.413,22.972-9.318
			c7.82-2.767,15.614-5.431,23.487-7.628c7.901-2.309,15.888-4.103,23.869-5.838c7.981-1.466,15.968-2.852,24.004-3.722
			c8.013-1.004,16.074-1.412,24.057-1.681c7.986-0.081,15.914-0.054,23.842,0.569c5.758,0.3,11.838,1.166,18.219,1.955
			c3.18,0.542,6.439,1.139,9.748,1.74c1.633,0.296,3.314,0.704,4.974,1.085c1.708,0.435,3.421,0.812,5.13,1.246
			c13.631,3.422,27.968,8.421,42.389,15.179c14.361,6.762,28.697,15.291,42.275,25.308c13.631,10.049,26.56,21.559,38.177,34.133
			c11.624,12.546,22.049,26.066,30.905,40.025c8.905,13.927,16.21,28.268,21.968,42.222c5.807,13.959,9.964,27.591,13.003,40.106
			c0.709,3.179,1.359,6.247,1.982,9.259c0.682,2.96,1.031,5.946,1.547,8.771c0.221,1.439,0.436,2.798,0.683,4.184
			c0.241,1.386,0.349,2.74,0.515,4.072c0.323,2.69,0.623,5.269,0.924,7.739c-4.13-53.249-26.801-106.116-62.186-147.961l-3.31-3.856
			c-1.144-1.3-2.229-2.632-3.366-3.91l-7.009-7.493l-7.273-7.197c-1.251-1.193-2.529-2.331-3.776-3.475l-3.802-3.449
			c-10.237-9.04-21.044-17.322-32.366-24.734c-22.811-14.528-47.518-25.77-73.1-31.936c14.012,3.313,27.833,7.928,41.137,13.793
			c13.282,5.924,26.043,13.062,38.154,21.236c24.327,16.317,46.08,36.685,64.057,60.091c9.013,11.649,17.048,24.057,24.164,37.039
			c7.059,12.923,13.09,26.501,17.843,40.482c9.474,27.945,14.116,57.594,12.896,87.014c-1.413,29.385-8.853,58.384-21.124,85.104
			c-6.141,13.413-13.525,26.174-21.915,38.232c-8.39,12.111-17.788,23.514-27.94,34.104c-10.156,10.588-21.183,20.362-32.859,29.161
			c-11.698,8.798-24.004,16.672-36.872,23.515c-25.631,13.852-53.438,23.192-81.841,27.698c13.359-2.063,26.448-5.161,39.318-9.341
			c12.788-4.184,25.254-9.394,37.307-15.425c12.059-5.974,23.573-13.084,34.649-20.798c10.972-7.712,21.559-16.183,31.308-25.522
			c9.748-9.233,18.954-19.175,27.289-29.653c8.311-10.646,15.861-21.779,22.512-33.456l4.859-8.798l4.4-9.067l1.084-2.281
			l0.978-2.279l1.955-4.673c0.655-1.52,1.358-3.04,1.929-4.613l1.766-4.726c2.391-6.247,4.238-12.655,6.193-19.116l2.418-9.668
			c0.783-3.26,1.273-6.569,1.923-9.829c2.336-13.143,3.642-26.501,3.533-39.876c-0.054-13.333-1.305-26.663-3.587-39.806
			l-1.901-9.856c-0.785-3.233-1.627-6.467-2.386-9.722c-0.762-3.26-1.874-6.435-2.771-9.614l-1.468-4.78l-1.653-4.749l-1.66-4.726
			l-0.868-2.363l-0.925-2.336l-3.798-9.26l-4.211-9.094l-1.058-2.255l-1.197-2.197l-2.305-4.453l-2.337-4.457l-2.524-4.314
			c-1.687-2.852-3.232-5.838-5.106-8.609l-5.432-8.39l-5.812-8.201c-7.847-10.779-16.505-20.99-25.738-30.572
			c-18.685-18.981-39.836-35.572-63.131-48.28c-5.785-3.26-11.762-6.058-17.734-8.937l-9.18-3.852
			c-0.731-0.354-1.521-0.655-2.251-0.951l-2.363-0.843l-4.672-1.74l-4.614-1.627l-4.78-1.439l-4.723-1.493l-2.39-0.677l-2.39-0.627
			l-9.614-2.332l-9.721-1.821c-26.012-4.425-52.733-4.398-78.854-0.789c-26.151,3.561-51.701,10.699-76.14,20.475
			c-24.465,9.722-47.846,21.995-70.001,35.954c-22.156,13.981-43.065,29.622-62.89,46.513c-2.498,2.09-4.941,4.206-7.358,6.381
			c-2.47,2.144-4.86,4.318-7.251,6.516l-3.583,3.26l-3.582,3.368l-7.009,6.677c-4.722,4.399-9.287,9.071-13.847,13.605
			c-4.673,4.538-9.071,9.206-13.524,13.852c-35.733,37.253-68.387,76.624-101.161,114.761
			c37.761-45.061,76.207-92.852,120.712-137.33c22.188-22.317,46.217-43.361,72.202-62.315
			c13.063-9.476,26.582-18.385,40.569-26.641c13.985-8.277,28.482-15.802,43.472-22.398c29.923-13.309,61.913-22.918,94.875-26.855
			c16.457-1.875,33.129-2.471,49.747-1.412c16.617,1.193,33.128,3.937,49.146,8.551c32.151,9.206,62.239,25.282,88.44,46.137
			c26.204,20.905,48.661,46.594,65.955,75.27c17.273,28.645,29.438,60.495,34.789,93.408c2.686,16.426,3.662,33.128,2.793,49.675
			c-0.87,16.618-3.584,33.021-8.09,48.935c-8.878,31.878-24.604,61.527-44.724,87.324c-20.12,25.797-44.747,47.791-71.983,65.06
			c-27.264,17.219-57.239,29.6-88.252,36.115c-15.394,3.26-31.115,5.054-46.782,5.161c-3.884,0-7.794-0.166-11.677-0.166
			c-3.937-0.162-7.793-0.597-11.676-0.866c-1.929-0.111-3.884-0.326-5.758-0.6l-5.813-0.704c-3.829-0.597-7.626-1.14-11.456-1.848
			c-15.206-2.88-30.115-6.843-44.505-11.893c-14.395-5.048-28.376-11.026-41.873-17.649c-26.936-13.362-52.082-29.271-75.758-45.997
			c-28.838-20.206-59.303-44.752-82.387-62.997c22.376,18.03,45.213,36.438,69.271,54.086c24.03,17.543,49.284,34.488,76.354,48.989
			c6.709,3.583,13.659,7.005,20.613,10.318c7.059,3.201,14.116,6.354,21.313,9.121c7.251,2.933,14.582,5.435,22.049,7.878
			c7.47,2.278,14.963,4.399,22.621,6.134c7.654,1.848,15.422,3.153,23.188,4.346l5.865,0.763c1.955,0.215,3.963,0.488,5.918,0.596
			c3.938,0.323,7.874,0.704,11.812,0.87c15.833,0.758,31.797-0.22,47.55-2.825c31.523-4.995,62.234-16.295,90.309-32.479
			c28.08-16.183,53.522-37.308,74.781-62.343c21.184-24.926,38.178-53.817,48.662-85.211c5.215-15.693,8.825-31.931,10.646-48.388
			C2043.064,1429.743,2043.011,1413.018,2041.19,1396.534"/>
		<path fill="#D3A86A" d="M1182.983,1257.425c0.086-0.081,0.166-0.189,0.288-0.243
			C1182.715,1257.155,1182.796,1257.263,1182.983,1257.425"/>
		<path fill="none" stroke="#D3A86A" stroke-width="0.6951" stroke-miterlimit="10" d="M1182.983,1257.425
			c0.086-0.081,0.166-0.189,0.288-0.243C1182.715,1257.155,1182.796,1257.263,1182.983,1257.425"/>
	</g>
	<g>
		<path fill="#D3A86A" d="M547.704,2003.107c11.551,16.663,17.159,32.021,16.824,46.075c-0.336,14.053-7.012,25.594-20.029,34.616
			c-15.548,10.778-31.016,13.13-46.402,7.058c-15.39-6.075-30.508-19.821-45.359-41.245c-3.094-4.463-6.657-10.475-10.684-18.033
			l-64.493,44.707l-6.807-9.819l149.182-103.415L547.704,2003.107z M536.937,2073.843c11.158-7.734,16.38-17.359,15.67-28.869
			c-0.711-11.512-6.171-24.632-16.382-39.36l-18.409-26.556l-66.948,46.409c4.411,7.954,8.011,13.939,10.796,17.957
			c13.613,19.639,26.586,31.68,38.92,36.126C512.916,2083.995,525.034,2082.094,536.937,2073.843z"/>
	</g>
	<g>
		<path fill="#D3A86A" d="M626.808,2111.307l8.548,8.347l-57.67,59.062l75.382,73.605l57.67-59.062l8.548,8.347l-126.817,129.877
			l-8.548-8.347l61.559-63.044l-75.382-73.605l-61.559,63.044l-8.548-8.347L626.808,2111.307z"/>
	</g>
	<g>
		<path fill="#D3A86A" d="M728.202,2331.172c9.537-15.277,21.092-27.166,34.663-35.659c13.571-8.495,27.799-12.869,42.686-13.126
			c14.884-0.257,29.046,3.807,42.482,12.194c14.052,8.771,24.209,19.889,30.479,33.351c6.266,13.462,8.474,28.045,6.622,43.746
			c-1.855,15.703-7.596,31.27-17.23,46.703c-9.49,15.202-20.979,27.024-34.463,35.465c-13.487,8.441-27.653,12.802-42.498,13.084
			c-14.848,0.281-28.913-3.725-42.195-12.016c-14.206-8.868-24.492-20.036-30.859-33.509c-6.37-13.472-8.64-28.04-6.81-43.704
			C712.908,2362.038,718.615,2346.529,728.202,2331.172z M856.962,2411.551c9.203-14.742,14.536-29.099,16.002-43.068
			c1.463-13.971-0.54-26.53-6.007-37.681c-5.471-11.15-13.696-20.153-24.675-27.007c-10.825-6.758-22.468-10.157-34.926-10.199
			c-12.459-0.04-24.661,3.651-36.606,11.08c-11.946,7.428-22.52,18.513-31.723,33.254c-9.299,14.897-14.618,29.315-15.958,43.256
			c-1.34,13.942,0.798,26.453,6.417,37.537c5.618,11.083,13.956,20.075,25.013,26.978c10.826,6.758,22.354,10.168,34.589,10.228
			c12.231,0.061,24.277-3.596,36.138-10.972C837.084,2437.581,847.663,2426.447,856.962,2411.551z"/>
	</g>
	<g>
		<path fill="#D3A86A" d="M1012.638,2397.895l-57.939-23.673l4.211-10.306l127.191,51.967l-4.211,10.306l-58.191-23.774
			l-64.444,157.73l-11.061-4.519L1012.638,2397.895z"/>
	</g>
	<g>
		<path fill="#D3A86A" d="M1115.103,2520.67c3.389-17.688,9.882-32.942,19.48-45.757c9.596-12.815,21.292-22.024,35.084-27.631
			c13.792-5.604,28.466-6.919,44.023-3.938c16.269,3.116,29.751,9.825,40.451,20.122c10.697,10.299,18.014,23.104,21.945,38.419
			c3.93,15.315,4.187,31.905,0.763,49.773c-3.372,17.602-9.828,32.77-19.362,45.503c-9.538,12.735-21.18,21.909-34.926,27.522
			c-13.748,5.615-28.312,6.948-43.69,4.002c-16.447-3.151-30.067-9.86-40.863-20.132c-10.798-10.271-18.166-23.042-22.105-38.312
			C1111.963,2554.974,1111.696,2538.45,1115.103,2520.67z M1264.181,2549.231c3.27-17.067,3.07-32.382-0.599-45.94
			c-3.67-13.56-10.065-24.552-19.185-32.982c-9.123-8.429-20.04-13.861-32.751-16.297c-12.533-2.401-24.62-1.375-36.254,3.076
			c-11.636,4.454-21.688,12.295-30.15,23.529c-8.467,11.234-14.334,25.386-17.604,42.454c-3.304,17.247-3.068,32.613,0.706,46.1
			c3.775,13.488,10.28,24.388,19.517,32.7c9.236,8.313,20.254,13.695,33.055,16.148c12.534,2.401,24.517,1.426,35.95-2.928
			c11.432-4.353,21.349-12.105,29.753-23.26C1255.022,2580.678,1260.877,2566.479,1264.181,2549.231z"/>
	</g>
	<g>
		<path fill="#D3A86A" d="M1367.077,2564.26c-0.767-20.169,2.795-37.83,10.69-52.986c7.893-15.153,19.129-26.949,33.709-35.384
			c14.578-8.434,31.32-13.01,50.225-13.729c7.958-0.302,15.378,0.095,22.259,1.191c6.88,1.098,11.796,2.36,14.75,3.788l0.443,11.669
			c-4.678-1.543-10.706-2.855-18.084-3.934c-7.378-1.079-14.233-1.497-20.563-1.256c-14.836,0.563-28.509,4.207-41.024,10.934
			c-12.516,6.725-22.445,16.612-29.783,29.664c-7.34,13.049-10.656,28.847-9.952,47.387c0.986,25.96,9.032,45.831,24.139,59.611
			c15.106,13.784,36,20.167,62.683,19.153c9.948-0.378,21.003-2.653,33.164-6.83l-2.506-65.938l-42.058,1.599l-0.434-11.396
			l53.997-2.052l3.202,84.251c-2.628,2.366-8.723,4.658-18.285,6.877c-9.562,2.218-19.228,3.517-28.996,3.888
			c-29.396,1.117-52.739-5.989-70.034-21.321C1377.327,2614.12,1368.146,2592.391,1367.077,2564.26z"/>
	</g>
	<g>
		<path fill="#D3A86A" d="M1625.235,2446.954c10.991-2.682,19.672-4.334,26.042-4.957c29.928-1.435,47.909,10.203,53.939,34.912
			c3.52,14.422,1.711,27.44-5.424,39.056c-7.135,11.617-18.299,19.699-33.493,24.245l0.129,0.527l80.716,63.317l-14.246,3.476
			l-80.521-62.525l-30.073,7.339l18.927,77.557l-11.607,2.832l-43.033-176.348L1625.235,2446.954z M1693.018,2479.605
			c-3.219-13.189-10.494-21.242-21.828-24.16c-11.333-2.916-26.232-2.124-44.698,2.383l-25.72,6.276l18.958,77.688l26.248-6.405
			c19.168-4.678,32.708-11.428,40.616-20.254C1694.503,2506.31,1696.644,2494.467,1693.018,2479.605z"/>
	</g>
	<g>
		<path fill="#D3A86A" d="M1838.012,2579.29l-9.503-195.896l10.579-4.939l144.334,132.943l-11.934,5.572l-50.903-47.407
			l-74.55,34.808l3.787,69.405L1838.012,2579.29z M1911.931,2461.616l-13.684-12.939c-29.589-27.639-48.915-46.036-57.982-55.188
			l-0.492,0.229c1.001,10.92,1.956,27.406,2.863,49.458c0.263,6.77,1.095,23.313,2.495,49.63L1911.931,2461.616z"/>
	</g>
	<g>
		<path fill="#D3A86A" d="M2003.423,2287.184c16.662-11.551,32.021-17.159,46.075-16.824c14.052,0.335,25.593,7.012,34.616,20.029
			c10.778,15.547,13.13,31.016,7.057,46.402c-6.073,15.39-19.821,30.508-41.244,45.358c-4.464,3.094-10.475,6.657-18.034,10.685
			l44.707,64.492l-9.819,6.808l-103.415-149.182L2003.423,2287.184z M2074.158,2297.949c-7.734-11.157-17.359-16.379-28.869-15.669
			c-11.512,0.712-24.632,6.172-39.36,16.382l-26.556,18.408l46.409,66.949c7.953-4.412,13.939-8.013,17.956-10.797
			c19.639-13.613,31.68-26.586,36.127-38.92C2084.31,2321.971,2082.409,2309.853,2074.158,2297.949z"/>
	</g>
	<g>
		<path fill="#D3A86A" d="M2110.988,2207.335l8.348-8.549l59.062,57.67l73.604-75.381l-59.062-57.67l8.348-8.549l129.877,126.817
			l-8.348,8.549l-63.044-61.56l-73.604,75.381l63.044,61.56l-8.348,8.549L2110.988,2207.335z"/>
	</g>
	<g>
		<path fill="#D3A86A" d="M2369.498,2073.636l-125.541-9.548l7.503-10.823l112.617,9.841l0.464-0.669l-48.649-102.118l7.426-10.711
			l52.987,114.21l59.918,41.536l-6.807,9.818L2369.498,2073.636z"/>
	</g>
	<g>
		<path fill="#D3A86A" d="M199.492,1097.7l2.177,0.531c-0.974,2.736-1.3,5.961-0.977,9.677c0.322,3.718,1.518,6.162,3.585,7.332
			c2.071,1.173,7.263,2.772,15.574,4.8l163.98,40.015c8.894,2.17,14.418,3.134,16.577,2.892c2.159-0.242,4.144-1.242,5.958-3.004
			c1.813-1.761,3.366-5.302,4.664-10.622l2.177,0.531l-13.914,57.02l-2.177-0.531c1.747-7.157,1.458-11.943-0.874-14.356
			c-2.329-2.413-8.375-4.811-18.139-7.193l-162.385-39.625c-10.149-2.477-17.031-3.131-20.645-1.963
			c-3.614,1.169-6.053,5.186-7.319,12.049l-2.177-0.531L199.492,1097.7z"/>
	</g>
	<g>
		<path fill="#D3A86A" d="M295.512,841.94l13.918-31.816l2.052,0.898c-4.157,10.993-0.895,18.826,9.783,23.497
			c2.284,0.999,5.552,2.103,9.807,3.313l161.952,45.599c8.165,2.051,13.66,2.744,16.486,2.077c2.826-0.663,5.562-3.407,8.21-8.226
			l2.053,0.897l-19.813,45.289l-2.053-0.897c2.826-5.957,1.246-10.244-4.735-12.861c-1.359-0.595-4.151-1.49-8.379-2.687
			l-157.072-44.067l135.188,145.209l-0.598,1.368l-198.301-0.19l139.918,85.562c2.102,1.354,4.601,2.664,7.495,3.931
			c5.247,2.295,9.214,0.371,11.904-5.778l2.053,0.898l-13.468,30.786l-2.053-0.898c2.035-4.652,2.772-7.888,2.209-9.71
			c-0.561-1.82-1.935-3.644-4.126-5.473c-2.189-1.826-4.754-3.6-7.697-5.322l-152.73-94.274
			c-10.676-0.202-17.745,1.175-21.211,4.126c-3.466,2.951-5.96,6.165-7.481,9.642l-2.052-0.898l16.627-38.008l195.856,1.237
			L295.512,841.94z"/>
	</g>
	<g>
		<path fill="#D3A86A" d="M498.824,556.44l22.422-26.519l1.71,1.446c-7.122,9.349-6.232,17.787,2.668,25.313
			c1.903,1.609,4.721,3.601,8.453,5.974l142.193,89.938c7.24,4.297,12.308,6.529,15.207,6.697c2.899,0.171,6.304-1.677,10.218-5.54
			l1.711,1.446l-31.917,37.748l-1.711-1.446c4.409-4.902,4.119-9.462-0.867-13.678c-1.133-0.958-3.553-2.613-7.262-4.968
			l-137.954-87.076l88.104,177.76l-0.964,1.141l-189.994-56.796L530.51,829.828c1.627,1.898,3.648,3.867,6.061,5.907
			c4.373,3.698,8.724,2.986,13.057-2.139l1.711,1.446l-21.696,25.66l-1.711-1.446c3.279-3.877,4.91-6.768,4.891-8.675
			c-0.018-1.904-0.814-4.044-2.392-6.423c-1.577-2.375-3.528-4.808-5.856-7.299l-119.46-133.955
			c-10.173-3.242-17.342-3.939-21.506-2.101c-4.165,1.838-7.472,4.207-9.922,7.104l-1.71-1.446l26.786-31.679l187.351,57.102
			L498.824,556.44z"/>
	</g>
	<g>
		<path fill="#D3A86A" d="M592.3,469.432l-1.544-2.015l109.75-84.144l18.446,24.06l-1.778,1.363
			c-9.216-7.111-15.24-10.834-18.071-11.175c-2.832-0.337-7.408,1.916-13.729,6.762l-57.601,44.162l60.064,78.342l53.453-40.981
			c5.292-4.058,8.275-7.126,8.939-9.205c0.665-2.078,0.31-4.095-1.065-6.053l1.778-1.363l12.63,16.474l-1.778,1.363
			c-2.153-1.987-4.262-2.816-6.329-2.487c-2.068,0.333-5.078,2.011-9.028,5.039l-54.875,42.072l41.346,53.928
			c6.24,8.139,11.486,13.432,15.742,15.876c4.257,2.447,8.371,2.868,12.341,1.266c3.971-1.601,9.269-4.943,15.898-10.026
			l30.773-23.593c9.783-7.501,15.78-12.627,17.991-15.38c2.211-2.754,3.495-5.858,3.854-9.313c0.358-3.453-1.536-8.949-5.687-16.488
			l1.778-1.363l18.355,23.941l-119.35,91.504l-1.363-1.778c3.848-3.327,6.32-6.441,7.415-9.352
			c1.094-2.906-0.446-7.085-4.623-12.534L617.974,477.391c-4.903-6.395-8.907-10.471-12.01-12.229
			C602.858,463.406,598.304,464.829,592.3,469.432z"/>
	</g>
	<g>
		<path fill="#D3A86A" d="M767.4,339.735l-0.997-2.006l55.904-27.781c14.177-7.045,24.585-11.826,31.227-14.348
			c6.64-2.52,14.158-3.669,22.551-3.447c8.394,0.225,15.781,2.506,22.163,6.845c6.38,4.339,11.745,10.881,16.089,19.625
			c4.968,9.996,6.689,21.017,5.171,33.064s-6.209,23.922-14.073,35.616l24.534,14.467c5.688,3.839,19.558,11.555,41.607,23.148
			c22.049,11.593,37.626,17.6,46.73,18.021c9.104,0.424,17-1.027,23.688-4.351c6.598-3.278,12.914-9.585,18.947-18.921l2.132,2.276
			c-6.348,14.052-18.072,25.324-35.174,33.823c-11.401,5.666-22.877,7.161-34.427,4.484c-11.55-2.677-35.019-14.11-70.406-34.301
			c-0.267-0.085-0.443-0.218-0.532-0.399l-34.943-20.632l-17.287,9.258l-15.947,7.925l37.43,75.321
			c3.008,6.054,5.959,9.999,8.855,11.835c2.893,1.838,7.388,1.241,13.482-1.788l0.997,2.006l-50.822,25.255l-0.997-2.006
			c6.196-3.413,9.479-6.709,9.844-9.89c0.364-3.18-1.29-8.47-4.966-15.867L790.41,350.466c-2.523-5.078-5.283-8.954-8.281-11.631
			C779.131,336.158,774.22,336.458,767.4,339.735z M805.909,324.602l45.925,92.416l20.636-10.255
			c16.258-8.08,26.415-17.906,30.465-29.482c4.052-11.574,2.977-23.602-3.228-36.085c-6.025-12.125-15.594-21.686-28.706-28.679
			c-13.111-6.993-29.404-5.649-48.878,4.028L805.909,324.602z"/>
	</g>
	<g>
	</g>
	<g>
		<path fill="#D3A86A" d="M1384.98,378.299l-41.397,4.732l-3.85-33.682c-18.369,25.85-42.128,40.441-71.279,43.773
			c-21.643,2.474-39.509-1.647-53.597-12.362c-14.089-10.716-22.359-26.806-24.813-48.271l-14.96-130.87
			c-0.904-7.913-2.42-12.825-4.541-14.738c-2.124-1.911-6.647-2.472-13.571-1.681l-0.254-2.226l58.017-6.632l0.254,2.226
			c-6.135,0.701-10.351,2.16-12.652,4.377c-2.302,2.218-3.04,6.938-2.215,14.157l13.722,120.039
			c2.873,25.127,10.799,42.384,23.783,51.772c12.984,9.39,26.983,13.224,42.002,11.507c23.613-2.699,43.343-15.725,59.189-39.083
			l-16.911-147.934c-1.481-12.958-3.499-20.518-6.05-22.683c-2.554-2.162-6.253-2.968-11.099-2.414l-2.077,0.237l-0.254-2.226
			l57.571-6.581l0.254,2.226c-7.077,1.211-11.417,2.909-13.021,5.094c-1.604,2.188-2.089,6.047-1.456,11.583l20.339,177.929
			c0.803,7.02,1.673,11.576,2.615,13.671c0.939,2.096,2.556,3.741,4.848,4.93c2.289,1.189,6.007,1.49,11.151,0.902L1384.98,378.299z
			"/>
	</g>
	<g>
		<path fill="#D3A86A" d="M1624.656,176.965l42.287,4.834l-0.254,2.226c-6.454-0.536-11.061,0.314-13.821,2.554
			c-2.762,2.24-4.604,7.417-5.532,15.526l-22.745,198.977l-153.124-205.573l-18.475,161.619c-0.588,5.14-0.629,8.99-0.118,11.552
			c0.508,2.562,1.454,4.373,2.836,5.432c1.382,1.061,4.989,2.373,10.823,3.941l-0.254,2.226l-41.992-4.8l0.255-2.226
			c7.517,0.859,12.344,0.061,14.479-2.401c2.135-2.459,3.778-8.73,4.932-18.813l16.898-147.832
			c1.48-12.948,0.884-23.731-1.788-32.349c-2.674-8.617-10.571-13.376-23.696-14.276l0.254-2.226l41.102,4.698l143.87,193.154
			l17.633-154.256c0.949-8.305,0.046-13.542-2.713-15.71c-2.758-2.169-6.463-3.52-11.111-4.051L1624.656,176.965z"/>
	</g>
	<g>
		<path fill="#D3A86A" d="M1748.638,201.806l0.796-2.094l94.367,35.876c24.012,9.128,42.257,18.221,54.737,27.28
			c12.479,9.058,22.346,19.599,29.599,31.623c7.252,12.024,11.505,25.491,12.761,40.4c1.254,14.912-1.071,30.137-6.979,45.679
			c-5.697,14.984-14.437,28.518-26.22,40.6c-11.784,12.084-25.064,21.308-39.839,27.674c-14.777,6.365-28.879,9.207-42.305,8.522
			c-13.428-0.684-32.658-5.785-57.692-15.303l-96.602-36.725l0.796-2.094l2.513,0.956c5.026,1.911,9.097,1.144,12.219-2.3
			c3.119-3.443,6.695-10.466,10.727-21.069l56.905-149.686c4.242-11.159,5.85-18.265,4.827-21.314
			C1758.223,206.78,1754.687,204.105,1748.638,201.806z M1817.867,230.681l-31.549-11.994l-60.66,159.559
			c-3.821,10.051-4.963,18.165-3.422,24.342c1.538,6.177,5.986,11.918,13.346,17.217c7.356,5.301,17.97,10.586,31.838,15.858
			c38.528,14.647,69.346,15.047,92.453,1.196c23.104-13.85,39.099-32.454,47.979-55.814c10.437-27.453,8.799-55.292-4.918-83.514
			C1889.219,269.311,1860.863,247.027,1817.867,230.681z"/>
	</g>
	<g>
	</g>
	<g>
		<path fill="#D3A86A" d="M2129.51,383.47l1.545-2.015l109.751,84.145l-18.446,24.06l-1.778-1.363
			c4.474-10.745,6.506-17.53,6.101-20.352c-0.409-2.822-3.773-6.657-10.094-11.503l-57.602-44.162l-60.064,78.342l53.453,40.982
			c5.293,4.058,9.03,6.141,11.21,6.242c2.179,0.103,4.036-0.764,5.569-2.6l1.777,1.363l-12.631,16.474l-1.777-1.363
			c1.359-2.594,1.613-4.846,0.759-6.757c-0.858-1.911-3.261-4.381-7.211-7.41l-54.875-42.072l-41.345,53.927
			c-6.24,8.139-9.989,14.58-11.246,19.324c-1.257,4.747-0.596,8.829,1.981,12.246c2.577,3.419,7.18,7.668,13.81,12.751
			l30.773,23.593c9.783,7.501,16.291,11.961,19.523,13.381c3.234,1.421,6.564,1.854,9.994,1.306
			c3.428-0.551,8.244-3.807,14.446-9.772l1.778,1.363l-18.355,23.941l-119.351-91.505l1.362-1.778
			c4.212,2.853,7.863,4.431,10.956,4.733c3.091,0.303,6.728-2.27,10.904-7.718l108.06-140.943
			c4.903-6.395,7.801-11.319,8.691-14.772C2138.07,392.103,2135.514,388.073,2129.51,383.47z"/>
	</g>
	<g>
		<path fill="#D3A86A" d="M2410.952,660.379l-11.975,21.606l-1.456-1.641c1.728-30.004-6.982-55.797-26.135-77.381
			c-19.881-22.404-42.61-34.593-68.191-36.571c-25.582-1.976-47.831,5.427-66.746,22.211c-11.692,10.375-22.407,25.375-32.148,45
			c-9.74,19.624-13.628,40.41-11.656,62.355c1.968,21.945,11.313,42.338,28.032,61.18c10.969,12.361,23.715,22.714,38.241,31.058
			c14.522,8.344,27.715,12.445,39.572,12.306l0.842,1.849l-27.859,4.156c-20.543-15.05-33.648-25.02-39.315-29.905
			c-5.667-4.889-12.633-11.986-20.893-21.295c-30.596-34.48-44.498-66.236-41.707-95.268c2.791-29.031,15.318-53.426,37.587-73.185
			c15.042-13.348,32.894-22.37,53.559-27.06c20.66-4.691,41.371-3.401,62.133,3.867c20.757,7.27,39.332,20.137,55.722,38.608
			c8.193,9.232,14.442,17.963,18.748,26.191c4.305,8.226,7.547,15.367,9.724,21.42l3.75,9.852
			C2410.902,660.023,2410.958,660.238,2410.952,660.379z"/>
	</g>
	<g>
		<path fill="#D3A86A" d="M2457.642,930.52l-56.381-106.859l-74.79,39.46c-7.036,3.712-11.346,6.409-12.932,8.089
			c-1.588,1.683-2.564,3.772-2.93,6.275c-0.367,2.499,0.637,5.996,3.006,10.487l-1.981,1.045l-26.552-50.325l1.98-1.045
			c4.215,9.482,11.074,11.717,20.581,6.702l156.414-82.527c8.888-4.688,14.136-8.387,15.745-11.092
			c1.609-2.707,0.896-7.257-2.137-13.647l1.98-1.046l26.553,50.325l-1.981,1.046c-3.28-5.362-6.313-8.549-9.095-9.555
			c-2.784-1.008-6.904-0.072-12.364,2.808l-76.082,40.143l56.38,106.859l69.61-36.728c7.925-4.181,12.958-7.71,15.101-10.585
			c2.14-2.875,1.563-7.438-1.734-13.689l1.98-1.046l26.204,49.664l-1.981,1.046c-2.071-3.925-4.074-6.603-6.013-8.036
			c-1.937-1.431-4.055-1.983-6.358-1.66c-2.305,0.324-7.416,2.576-15.336,6.754l-149.288,78.766
			c-7.656,4.04-12.247,6.907-13.77,8.603c-1.524,1.696-2.442,3.74-2.754,6.136c-0.312,2.395,0.661,5.728,2.916,10.002l-1.981,1.045
			l-26.203-49.664l1.98-1.045c2.834,5.37,5.825,8.38,8.978,9.024c3.15,0.644,9.563-1.583,19.235-6.688L2457.642,930.52z"/>
	</g>
	<g>
		<path fill="#D3A86A" d="M2658.786,1151.494l-28.461-2.441l-0.639-2.146c1.639-0.074,3.749-0.493,6.325-1.26
			c2.194-0.653,3.367-1.858,3.522-3.613c0.151-1.756-0.281-4.35-1.301-7.775l-16.356-54.989l-180.381,53.657
			c-7.439,2.213-12.339,4.319-14.701,6.322c-2.365,2-3.599,4.133-3.703,6.398c-0.105,2.265,0.525,5.687,1.888,10.268l-2.147,0.639
			l-16.989-57.116l2.146-0.639c2.606,7.017,5.321,11.09,8.152,12.223c2.826,1.13,7.865,0.62,15.112-1.536l183.384-54.55
			l-15.678-52.704c-1.586-5.332-2.932-8.715-4.032-10.15c-1.104-1.435-2.895-1.783-5.375-1.045
			c-1.241,0.369-3.036,1.317-5.386,2.849l-0.639-2.147l22.5-17.6l0.639,2.147c-2.927,2.735-4.499,5.044-4.718,6.925
			c-0.221,1.88,0.491,5.583,2.135,11.109l41.619,139.909c1.643,5.524,3.184,9.397,4.623,11.613c1.438,2.216,4.045,3.383,7.821,3.507
			L2658.786,1151.494z"/>
	</g>
	<g>
		<path fill="#D3A86A" d="M1462.45,736.274v3.462c-4.465-0.462-9.427,0.23-14.887,2.077c-5.464,1.846-8.695,4.537-9.694,8.071
			c-1.002,3.538-1.5,11.919-1.5,25.14v260.862c0,14.147,0.577,22.795,1.731,25.948c1.153,3.152,3.383,5.766,6.693,7.844
			c3.307,2.077,9.192,3.112,17.656,3.112v3.462h-90.707v-3.462c11.385,0,18.465-2.189,21.234-6.571
			c2.77-4.382,4.154-14.339,4.154-29.872V778.025c0-16.146-1.54-26.716-4.616-31.714c-3.08-4.999-10.004-7.188-20.773-6.574v-3.462
			H1462.45z"/>
	</g>
	<g>
		<path fill="#D3A86A" d="M1307.399,1768.778v-3.924h213.727v46.854h-3.462c-4.616-17.387-8.504-27.617-11.656-30.697
			c-3.155-3.076-10.888-4.616-23.196-4.616H1370.64v152.563h104.093c10.308,0,16.85-0.959,19.619-2.885
			c2.77-1.922,4.229-4.731,4.385-8.424h3.462v32.082h-3.462c-0.771-4.461-2.578-7.462-5.424-9.002
			c-2.849-1.536-8.118-2.308-15.811-2.308H1370.64v105.017c0,15.85,1.457,27.274,4.378,34.274c2.921,7.004,7.57,11.39,13.946,13.156
			c6.376,1.771,16.016,2.654,28.927,2.654h59.927c19.052,0,31.228-0.649,36.528-1.947c5.302-1.299,9.795-3.898,13.484-7.797
			c3.686-3.898,6.531-12.421,8.529-25.569h3.462v46.623h-232.422v-3.462c7.848-0.462,13.809-1.958,17.888-4.497
			c4.075-2.535,6.116-9.11,6.116-19.72v-274.472c0-12.453-1.078-21.217-3.231-26.291
			C1326.015,1771.316,1319.091,1768.778,1307.399,1768.778z"/>
	</g>
</g>
<g>
</g>
<g>
</g>
<g>
</g>
<g>
</g>
<g>
</g>
<g>
</g>
<g>
</g>
<g>
</g>
<g>
</g>
<g>
</g>
<g>
</g>
<g>
</g>
<g>
</g>
<g>
</g>
<g>
</g>
</svg>
