<?xml version="1.0" encoding="utf-8"?>
<!-- Generator: Adobe Illustrator 16.0.0, SVG Export Plug-In . SVG Version: 6.00 Build 0)  -->
<!DOCTYPE svg PUBLIC "-//W3C//DTD SVG 1.1//EN" "http://www.w3.org/Graphics/SVG/1.1/DTD/svg11.dtd">
<svg version="1.1" id="Ebene_1" xmlns="http://www.w3.org/2000/svg" xmlns:xlink="http://www.w3.org/1999/xlink" x="0px" y="0px"
	 width="1000px" height="1000px" viewBox="0 0 1000 1000" enable-background="new 0 0 1000 1000" xml:space="preserve">
<g>
	<line fill="none" stroke="#D3A86A" stroke-width="3.6655" x1="729.088" y1="499.989" x2="912.363" y2="499.989"/>
	<line fill="none" stroke="#D3A86A" stroke-width="3.6655" x1="87.634" y1="499.989" x2="270.907" y2="499.989"/>
	<g>
		<defs>
			<rect id="SVGID_1_" x="0.001" y="-0.002" width="1000" height="1000.004"/>
		</defs>
		<clipPath id="SVGID_2_">
			<use xlink:href="#SVGID_1_"  overflow="visible"/>
		</clipPath>
		<path clip-path="url(#SVGID_2_)" fill="#D3A86A" d="M705.712,492.048c-1.197-10.902-4.689-21.532-9.913-31.17
			c-5.21-9.674-12.145-18.408-20.368-25.683c-8.206-7.285-17.735-13.103-28.028-16.798c-5.146-1.844-10.481-3.167-15.895-3.875
			l-2.02-0.268c-0.682-0.072-1.372-0.117-2.043-0.18c-1.36-0.134-2.711-0.169-4.081-0.232c-0.68-0.045-1.351-0.045-2.031-0.045
			l-2.049-0.009c-1.352,0.045-2.72,0.062-4.07,0.152c-5.414,0.332-10.783,1.109-16.047,2.3c-5.26,1.226-10.398,2.828-15.393,4.752
			c-9.986,3.873-19.393,8.984-28.115,14.828c-8.727,5.897-16.844,12.475-24.288,19.553c-7.472,7.061-14.41,14.471-21,21.952
			c-12.116,13.756-23.477,28.123-35.518,41.852c-6.014,6.854-12.215,13.564-18.73,19.92c-6.545,6.316-13.437,12.275-20.739,17.683
			c-7.302,5.388-15.012,10.237-23.128,14.244c-8.121,4.03-16.659,7.161-25.468,9.112c-4.397,0.965-8.869,1.646-13.361,1.97
			c-4.507,0.339-8.962,0.321-13.406-0.146c-8.886-0.947-17.647-3.56-25.733-7.532c-8.748-4.351-16.712-10.4-23.043-17.773
			c-3.155-3.724-5.857-7.804-7.983-12.118c-0.576-1.056-0.998-2.184-1.485-3.291c-0.246-0.539-0.429-1.11-0.649-1.684l-0.603-1.685
			l-0.515-1.718c-0.157-0.571-0.368-1.144-0.479-1.732l-0.402-1.755c-0.064-0.288-0.135-0.574-0.184-0.859l-0.144-0.896
			l-0.294-1.827c-0.081-0.607-0.121-1.217-0.185-1.824c-0.043-0.608-0.147-1.216-0.156-1.828l-0.054-1.842l-0.018-0.913l0.018-0.93
			c0.019-0.607,0.028-1.219,0.063-1.845c0.113-1.234,0.175-2.45,0.358-3.667c0.131-1.236,0.394-2.435,0.596-3.654
			c0.286-1.216,0.522-2.413,0.89-3.597c0.638-2.396,1.495-4.725,2.464-7.014c3.912-9.151,10.108-17.357,17.505-24.258
			c7.383-6.917,15.933-12.652,25.088-17.056c4.591-2.138,9.337-4.09,14.192-5.656c4.842-1.585,9.777-2.881,14.775-3.894
			c8.859-1.816,19.728-2.89,31.102-2.513c11.378,0.365,23.234,2.265,34.051,5.352c10.815,3.096,20.514,7.365,28.111,11.418
			c7.625,4.036,13.143,7.865,16.195,9.647c-4.592-3.714-9.76-7.195-15.093-10.246c-5.342-3.07-10.851-5.701-16.063-7.929
			c4.022,1.503,8.587,3.381,13.124,5.708c-4.265-2.308-9.12-4.643-13.343-6.254c1.74,0.67,3.499,1.378,4.993,1.968
			c1.485,0.626,2.703,1.11,3.401,1.343c-1.33-0.635-2.778-1.343-4.309-1.987c-0.779-0.322-1.565-0.644-2.353-0.975l-1.173-0.474
			c-0.408-0.153-0.811-0.295-1.203-0.457c-1.593-0.555-3.124-1.154-4.572-1.592c-1.448-0.448-2.749-0.912-3.857-1.199
			c-0.641-0.188-1.88-0.538-3.411-0.967c-0.777-0.206-1.618-0.403-2.509-0.626c-0.891-0.216-1.821-0.464-2.766-0.663
			c-1.887-0.413-3.793-0.842-5.472-1.136c-0.832-0.152-1.592-0.313-2.263-0.438c-0.667-0.116-1.226-0.233-1.67-0.304
			c4.529,0.653,9.634,1.646,14.453,2.89c4.819,1.244,9.384,2.703,12.95,3.91c-1.478-0.581-2.953-1.181-4.434-1.718
			c-1.486-0.51-2.946-1.065-4.417-1.547c0.93,0.224,2.049,0.616,3.271,1.001c0.604,0.198,1.225,0.395,1.856,0.61
			c0.626,0.214,1.249,0.447,1.862,0.662c2.465,0.866,4.648,1.771,5.588,2.048c-0.913-0.384-1.822-0.769-2.703-1.145
			c-0.886-0.375-1.804-0.698-2.685-1.047c-1.768-0.706-3.553-1.307-5.351-1.905c-0.886-0.323-1.794-0.591-2.712-0.869
			c-0.908-0.294-1.823-0.564-2.755-0.85c-0.937-0.261-1.88-0.528-2.833-0.78c-0.488-0.15-0.962-0.267-1.458-0.402
			c-0.484-0.135-0.98-0.251-1.485-0.367c-6.471-1.628-12.408-2.71-18.758-3.321c3.803,0.306,8.229,0.939,12.345,1.675
			c1.025,0.196,2.041,0.375,3.013,0.572c0.983,0.162,1.919,0.395,2.814,0.583c0.89,0.197,1.74,0.34,2.519,0.537
			c0.784,0.169,1.502,0.349,2.156,0.482c-0.854-0.258-1.713-0.5-2.576-0.751c-0.887-0.225-1.777-0.429-2.667-0.662
			c-1.769-0.446-3.594-0.778-5.379-1.146c0.438,0.064,0.707,0.083,0.796,0.064c-1.575-0.358-3.682-0.743-5.342-1.021
			c-0.018-0.026-0.09-0.063-0.147-0.098c-0.009,0.018-0.018,0.018-0.027,0.018l-1.31-0.27c-2.023-0.303-4.058-0.625-6.098-0.823
			c-2.046-0.251-4.108-0.384-6.144-0.537c-1.017-0.089-2.04-0.089-3.052-0.144c-1.016-0.016-2.023-0.089-3.035-0.08
			c-2.003,0-3.999-0.035-5.955,0.064c-4.17,0.099-8.152,0.402-12.059,0.743c-0.962,0.107-1.941,0.214-2.904,0.322
			c-0.48,0.054-0.953,0.098-1.44,0.152c-0.475,0.072-0.954,0.134-1.418,0.205c-0.954,0.125-1.907,0.26-2.86,0.395
			c-0.935,0.161-1.88,0.313-2.813,0.474c-1.889,0.297-3.737,0.726-5.608,1.119c-0.943,0.17-1.87,0.438-2.805,0.654
			c-0.927,0.249-1.87,0.473-2.805,0.724c-0.921,0.277-1.856,0.564-2.792,0.832c-0.469,0.144-0.944,0.27-1.415,0.43
			c-0.456,0.152-0.921,0.322-1.39,0.475c-0.936,0.322-1.889,0.654-2.833,0.976c-0.936,0.366-1.866,0.742-2.833,1.118
			c-9.481,3.805-18.529,8.663-26.757,14.83c-1.042,0.749-2.04,1.574-3.061,2.369c-0.98,0.834-1.996,1.63-2.949,2.497
			c-1.969,1.7-3.83,3.526-5.647,5.406c-1.803,1.906-3.535,3.883-5.177,5.986c-1.602,2.094-3.167,4.27-4.554,6.568
			c-0.336,0.512-0.641,1.066-0.944,1.593c-0.301,0.546-0.632,1.056-0.914,1.611c-0.558,1.101-1.167,2.183-1.667,3.319
			c-1.084,2.233-1.991,4.542-2.798,6.905l-0.567,1.771c-0.201,0.59-0.34,1.217-0.501,1.807c-0.349,1.201-0.59,2.416-0.863,3.633
			c-0.448,2.472-0.823,4.94-0.953,7.448c-0.35,4.991,0.071,10.04,1.19,14.927c1.109,4.867,2.917,9.592,5.279,14.012
			c2.345,4.404,5.308,8.486,8.624,12.207c3.316,3.724,7.029,7.069,11.007,10.059c7.974,5.959,17.035,10.382,26.53,13.155
			c4.47,1.308,9.033,2.203,13.633,2.666c4.591,0.502,9.227,0.502,13.773,0.163c9.109-0.663,18.036-2.669,26.502-5.658
			c8.457-2.988,16.506-6.941,24.09-11.507c7.589-4.583,14.735-9.774,21.492-15.374c6.751-5.62,13.158-11.635,19.185-17.969
			c6.069-6.303,11.872-12.833,17.55-19.473c11.374-13.28,22.314-26.987,34.221-40.08c6.924-7.588,14.344-15.212,22.363-22.335
			c4.034-3.563,8.251-6.963,12.637-10.202c4.376-3.23,8.93-6.265,13.637-9.066c2.344-1.415,4.744-2.711,7.169-3.99
			c2.442-1.236,4.902-2.47,7.382-3.553c2.498-1.128,5.027-2.12,7.581-3.07c2.576-0.921,5.146-1.79,7.739-2.513
			c2.596-0.761,5.234-1.36,7.858-1.925c2.64-0.484,5.271-0.949,7.911-1.227c2.646-0.331,5.297-0.473,7.93-0.563
			c2.629-0.027,5.253-0.018,7.855,0.196c1.905,0.089,3.903,0.385,6.014,0.636c1.037,0.187,2.112,0.375,3.204,0.581
			c0.535,0.09,1.092,0.233,1.646,0.357c0.563,0.136,1.128,0.271,1.682,0.413c4.492,1.128,9.229,2.765,13.979,4.995
			c4.726,2.237,9.45,5.039,13.933,8.349c4.484,3.312,8.745,7.104,12.583,11.24c3.831,4.134,7.269,8.6,10.176,13.199
			c2.936,4.59,5.351,9.307,7.25,13.906c1.913,4.6,3.283,9.093,4.284,13.228c0.226,1.046,0.438,2.048,0.653,3.051
			c0.224,0.976,0.34,1.951,0.511,2.89c0.071,0.475,0.143,0.921,0.223,1.369c0.073,0.457,0.109,0.914,0.171,1.352
			c0.098,0.885,0.205,1.726,0.295,2.542c-1.35-17.548-8.823-34.963-20.491-48.755l-1.086-1.279c-0.375-0.43-0.731-0.869-1.117-1.28
			l-2.309-2.478l-2.397-2.373c-0.404-0.395-0.824-0.769-1.234-1.145l-1.254-1.137c-3.385-2.98-6.937-5.71-10.668-8.144
			c-7.516-4.797-15.659-8.492-24.09-10.532c4.615,1.09,9.162,2.612,13.549,4.545c4.384,1.952,8.592,4.314,12.582,7.008
			c8.019,5.377,15.177,12.081,21.101,19.795c2.97,3.848,5.63,7.927,7.965,12.206c2.326,4.269,4.314,8.734,5.89,13.343
			c3.113,9.208,4.653,18.979,4.241,28.669c-0.458,9.698-2.908,19.257-6.965,28.063c-2.012,4.401-4.455,8.625-7.211,12.6
			c-2.774,3.989-5.861,7.73-9.218,11.221c-3.345,3.49-6.971,6.73-10.818,9.628c-3.856,2.884-7.92,5.498-12.152,7.751
			c-8.449,4.565-17.613,7.643-26.982,9.127c4.403-0.682,8.718-1.718,12.959-3.077c4.223-1.396,8.321-3.098,12.297-5.083
			c3.979-1.969,7.776-4.312,11.417-6.854c3.626-2.544,7.113-5.352,10.328-8.412c3.212-3.062,6.247-6.32,8.993-9.771
			c2.738-3.51,5.217-7.18,7.418-11.026l1.594-2.917l1.45-2.971l0.357-0.754l0.33-0.75l0.645-1.541c0.207-0.52,0.44-1.004,0.637-1.52
			l0.571-1.559c0.798-2.058,1.398-4.169,2.043-6.298l0.805-3.189c0.251-1.074,0.411-2.163,0.634-3.254
			c0.761-4.314,1.189-8.738,1.164-13.121c-0.026-4.407-0.44-8.792-1.191-13.132l-0.625-3.239c-0.251-1.074-0.528-2.139-0.786-3.212
			c-0.251-1.066-0.611-2.114-0.914-3.17l-0.483-1.575l-0.536-1.558l-0.556-1.556l-0.278-0.78l-0.313-0.77l-1.251-3.051l-1.379-2.998
			l-0.358-0.751l-0.393-0.725l-0.753-1.469l-0.77-1.467l-0.84-1.414c-0.558-0.948-1.057-1.924-1.683-2.845l-1.782-2.765
			l-1.914-2.694c-2.587-3.553-5.44-6.917-8.484-10.077c-6.156-6.264-13.127-11.723-20.806-15.911
			c-1.914-1.083-3.884-1.995-5.854-2.952l-3.015-1.264c-0.243-0.116-0.502-0.224-0.742-0.321l-0.771-0.277l-1.549-0.564
			l-1.528-0.547l-1.567-0.472l-1.567-0.484l-0.779-0.233l-0.785-0.197l-3.178-0.768l-3.203-0.61
			c-8.564-1.458-17.378-1.449-25.979-0.258c-8.617,1.181-17.046,3.535-25.102,6.748c-8.053,3.21-15.76,7.248-23.063,11.848
			c-7.299,4.608-14.201,9.771-20.732,15.328c-0.823,0.69-1.631,1.396-2.418,2.114c-0.822,0.706-1.608,1.424-2.398,2.138l-1.18,1.074
			l-1.173,1.108l-2.317,2.212c-1.559,1.449-3.051,2.989-4.565,4.483c-1.529,1.495-2.988,3.033-4.456,4.564
			c-11.771,12.277-22.533,25.253-33.334,37.823c12.443-14.851,25.114-30.6,39.777-45.268c7.32-7.349,15.239-14.283,23.805-20.538
			c4.296-3.124,8.752-6.059,13.368-8.779c4.601-2.73,9.382-5.201,14.328-7.383c9.862-4.375,20.396-7.553,31.258-8.842
			c5.434-0.627,10.918-0.814,16.404-0.465c5.468,0.394,10.91,1.29,16.208,2.809c10.586,3.044,20.491,8.342,29.138,15.213
			c8.634,6.892,16.035,15.349,21.726,24.808c5.693,9.44,9.711,19.928,11.475,30.775c0.886,5.422,1.198,10.917,0.911,16.38
			c-0.285,5.478-1.18,10.881-2.658,16.127c-2.924,10.506-8.114,20.277-14.736,28.778c-6.641,8.485-14.747,15.751-23.733,21.424
			c-8.984,5.693-18.856,9.773-29.076,11.919c-5.074,1.074-10.265,1.667-15.416,1.704c-1.29,0-2.57-0.055-3.849-0.055
			c-1.299-0.073-2.578-0.197-3.85-0.288c-0.636-0.036-1.279-0.106-1.898-0.196l-1.915-0.232c-1.261-0.197-2.522-0.375-3.775-0.626
			c-5.013-0.933-9.935-2.235-14.667-3.903c-4.751-1.682-9.353-3.634-13.799-5.817c-8.878-4.419-17.165-9.646-24.976-15.158
			c-9.494-6.659-19.546-14.748-27.15-20.763c7.371,5.945,14.907,12.01,22.836,17.81c7.918,5.8,16.232,11.384,25.162,16.146
			c2.215,1.198,4.493,2.326,6.786,3.399c2.327,1.075,4.653,2.112,7.033,3.025c2.381,0.966,4.806,1.789,7.268,2.577
			c2.449,0.769,4.921,1.468,7.453,2.021c2.515,0.626,5.073,1.056,7.644,1.448l1.933,0.251c0.645,0.074,1.297,0.16,1.94,0.197
			c1.307,0.109,2.597,0.233,3.902,0.287c5.208,0.252,10.471-0.072,15.662-0.931c10.396-1.665,20.518-5.37,29.764-10.704
			c9.254-5.333,17.646-12.312,24.645-20.546c6.988-8.213,12.583-17.755,16.036-28.099c1.721-5.154,2.918-10.506,3.508-15.929
			C706.341,502.978,706.323,497.479,705.712,492.048"/>
		<path clip-path="url(#SVGID_2_)" fill="#D3A86A" d="M422.882,446.193c0.027-0.028,0.054-0.053,0.094-0.072
			C422.793,446.112,422.82,446.147,422.882,446.193"/>
	</g>
	<g>
		<path fill="#D3A86A" d="M213.506,691.942c3.807,5.491,5.655,10.553,5.545,15.186c-0.111,4.631-2.311,8.434-6.601,11.407
			c-5.124,3.552-10.222,4.327-15.292,2.326c-5.072-2.002-10.055-6.531-14.949-13.592c-1.02-1.472-2.194-3.453-3.521-5.944
			l-21.254,14.734l-2.243-3.236l49.166-34.082L213.506,691.942z M209.958,715.255c3.677-2.55,5.398-5.721,5.165-9.515
			c-0.235-3.794-2.034-8.118-5.399-12.973l-6.066-8.751l-22.064,15.295c1.454,2.621,2.64,4.594,3.558,5.918
			c4.486,6.472,8.762,10.441,12.826,11.906C202.042,718.601,206.035,717.974,209.958,715.255z"/>
	</g>
	<g>
		<path fill="#D3A86A" d="M239.604,727.604l2.817,2.751l-19.006,19.465l24.843,24.258l19.006-19.465l2.817,2.75l-41.794,42.804
			l-2.817-2.751l20.288-20.777l-24.843-24.258l-20.288,20.777l-2.817-2.75L239.604,727.604z"/>
	</g>
	<g>
		<path fill="#D3A86A" d="M273,800.074c3.143-5.035,6.951-8.952,11.424-11.752s9.163-4.241,14.068-4.326s9.572,1.255,14,4.019
			c4.631,2.891,7.979,6.555,10.045,10.992c2.065,4.437,2.793,9.242,2.184,14.417c-0.611,5.175-2.504,10.305-5.679,15.392
			c-3.127,5.01-6.914,8.906-11.358,11.688c-4.444,2.782-9.113,4.22-14.006,4.313c-4.894,0.093-9.528-1.228-13.906-3.96
			c-4.682-2.923-8.072-6.604-10.17-11.044c-2.1-4.439-2.847-9.24-2.244-14.402C267.96,810.247,269.841,805.136,273,800.074z
			 M315.436,826.564c3.033-4.858,4.791-9.59,5.273-14.194c0.482-4.604-0.178-8.743-1.981-12.418s-4.513-6.642-8.132-8.9
			c-3.567-2.228-7.403-3.348-11.51-3.361c-4.106-0.013-8.127,1.203-12.064,3.652c-3.937,2.447-7.422,6.1-10.455,10.959
			c-3.065,4.909-4.817,9.66-5.258,14.256c-0.443,4.595,0.262,8.717,2.114,12.37s4.6,6.616,8.244,8.891
			c3.567,2.228,7.367,3.352,11.399,3.371c4.031,0.02,8-1.186,11.91-3.616C308.885,835.144,312.371,831.474,315.436,826.564z"/>
	</g>
	<g>
		<path fill="#D3A86A" d="M366.751,822.068l-19.095-7.802l1.388-3.396l41.918,17.127l-1.388,3.396l-19.178-7.835l-21.238,51.982
			l-3.646-1.489L366.751,822.068z"/>
	</g>
	<g>
		<path fill="#D3A86A" d="M400.507,862.541c1.117-5.829,3.257-10.856,6.419-15.08c3.163-4.224,7.018-7.258,11.563-9.105
			s9.381-2.28,14.508-1.298c5.361,1.027,9.806,3.237,13.332,6.632c3.525,3.394,5.937,7.614,7.233,12.661
			c1.294,5.048,1.379,10.515,0.25,16.403c-1.111,5.801-3.238,10.8-6.381,14.996c-3.143,4.198-6.979,7.222-11.509,9.071
			c-4.531,1.851-9.331,2.289-14.399,1.318c-5.42-1.038-9.91-3.25-13.467-6.635c-3.559-3.385-5.987-7.593-7.285-12.625
			C399.473,873.847,399.385,868.401,400.507,862.541z M449.638,871.954c1.078-5.625,1.012-10.672-0.197-15.141
			c-1.209-4.469-3.318-8.092-6.324-10.87c-3.006-2.776-6.604-4.567-10.793-5.37c-4.131-0.792-8.114-0.453-11.948,1.014
			c-3.835,1.467-7.147,4.052-9.936,7.754c-2.791,3.703-4.725,8.367-5.802,13.992c-1.089,5.684-1.011,10.748,0.233,15.193
			c1.244,4.444,3.387,8.037,6.432,10.776c3.044,2.739,6.675,4.513,10.894,5.321c4.131,0.791,8.08,0.471,11.848-0.964
			c3.767-1.435,7.036-3.99,9.806-7.666C446.62,882.318,448.549,877.639,449.638,871.954z"/>
	</g>
	<g>
		<path fill="#D3A86A" d="M483.552,876.894c-0.252-6.646,0.921-12.468,3.523-17.462c2.602-4.995,6.304-8.882,11.11-11.661
			c4.804-2.78,10.322-4.288,16.552-4.525c2.622-0.1,5.068,0.032,7.336,0.394c2.267,0.361,3.887,0.778,4.861,1.248l0.146,3.846
			c-1.542-0.509-3.528-0.941-5.96-1.297s-4.69-0.493-6.776-0.414c-4.889,0.186-9.396,1.387-13.521,3.604
			c-4.125,2.215-7.397,5.475-9.815,9.775c-2.419,4.302-3.512,9.507-3.28,15.618c0.325,8.555,2.977,15.104,7.956,19.646
			c4.978,4.542,11.864,6.646,20.658,6.313c3.279-0.125,6.922-0.875,10.93-2.251l-0.826-21.73l-13.86,0.526l-0.143-3.756
			l17.795-0.676l1.056,27.766c-0.866,0.779-2.875,1.534-6.026,2.267c-3.151,0.73-6.337,1.158-9.556,1.28
			c-9.688,0.368-17.381-1.973-23.081-7.025C486.93,893.327,483.904,886.165,483.552,876.894z"/>
	</g>
	<g>
		<path fill="#D3A86A" d="M568.639,838.212c3.622-0.885,6.483-1.43,8.582-1.635c9.863-0.473,15.79,3.362,17.776,11.505
			c1.16,4.754,0.564,9.045-1.787,12.872c-2.352,3.829-6.031,6.492-11.038,7.99l0.042,0.174l26.602,20.867l-4.695,1.146
			l-26.537-20.605l-9.91,2.418l6.236,25.56l-3.825,0.934l-14.183-58.117L568.639,838.212z M590.978,848.972
			c-1.061-4.347-3.459-7.001-7.194-7.962c-3.735-0.962-8.646-0.701-14.731,0.784l-8.477,2.068l6.248,25.604l8.65-2.11
			c6.317-1.542,10.78-3.766,13.387-6.675C591.467,857.772,592.173,853.869,590.978,848.972z"/>
	</g>
	<g>
		<path fill="#D3A86A" d="M638.761,881.838l-3.131-64.561l3.486-1.628l47.567,43.813l-3.933,1.836l-16.776-15.623l-24.569,11.472
			l1.248,22.873L638.761,881.838z M663.122,843.058l-4.51-4.266c-9.751-9.109-16.121-15.173-19.109-18.188l-0.162,0.075
			c0.33,3.599,0.646,9.031,0.944,16.299c0.087,2.231,0.36,7.683,0.822,16.357L663.122,843.058z"/>
	</g>
	<g>
		<path fill="#D3A86A" d="M693.276,785.579c5.491-3.807,10.553-5.656,15.185-5.546c4.631,0.111,8.435,2.312,11.408,6.601
			c3.552,5.124,4.327,10.223,2.325,15.293c-2.001,5.072-6.532,10.055-13.592,14.949c-1.472,1.02-3.453,2.193-5.943,3.521
			l14.733,21.254l-3.235,2.244l-34.082-49.165L693.276,785.579z M716.589,789.127c-2.55-3.678-5.722-5.398-9.516-5.165
			c-3.793,0.234-8.117,2.034-12.972,5.399l-8.752,6.067l15.295,22.063c2.622-1.453,4.595-2.64,5.919-3.557
			c6.472-4.487,10.44-8.762,11.905-12.827C719.934,797.043,719.308,793.05,716.589,789.127z"/>
	</g>
	<g>
		<path fill="#D3A86A" d="M728.722,759.261l2.751-2.817l19.465,19.006l24.258-24.843l-19.465-19.006l2.751-2.817l42.803,41.794
			l-2.751,2.817l-20.776-20.287l-24.258,24.843l20.776,20.287l-2.751,2.817L728.722,759.261z"/>
	</g>
	<g>
		<path fill="#D3A86A" d="M813.942,715.188l-41.374-3.147l2.473-3.566l37.114,3.243l0.153-0.221l-16.033-33.654l2.447-3.53
			l17.463,37.64l19.747,13.688l-2.243,3.236L813.942,715.188z"/>
	</g>
	<g>
		<path fill="#D3A86A" d="M98.75,393.555l0.718,0.175c-0.32,0.902-0.429,1.965-0.322,3.189c0.105,1.225,0.501,2.031,1.182,2.417
			c0.683,0.386,2.393,0.913,5.132,1.582l54.042,13.188c2.932,0.715,4.751,1.032,5.464,0.953c0.711-0.08,1.365-0.41,1.962-0.99
			c0.598-0.58,1.11-1.747,1.538-3.5l0.717,0.175l-4.585,18.792l-0.717-0.175c0.575-2.358,0.479-3.937-0.288-4.732
			c-0.768-0.795-2.761-1.585-5.979-2.371l-53.517-13.059c-3.344-0.816-5.611-1.032-6.803-0.646c-1.19,0.385-1.994,1.709-2.412,3.971
			l-0.718-0.175L98.75,393.555z"/>
	</g>
	<g>
		<path fill="#D3A86A" d="M130.405,309.257l4.587-10.485l0.677,0.296c-1.37,3.623-0.294,6.204,3.225,7.744
			c0.752,0.329,1.829,0.693,3.231,1.092l53.374,15.027c2.691,0.676,4.501,0.904,5.434,0.685c0.931-0.219,1.833-1.123,2.706-2.711
			l0.677,0.296l-6.529,14.926l-0.677-0.296c0.931-1.963,0.411-3.375-1.561-4.238c-0.447-0.196-1.368-0.491-2.762-0.886
			l-51.765-14.523l44.553,47.856l-0.197,0.451l-65.353-0.062l46.112,28.197c0.692,0.447,1.516,0.879,2.47,1.296
			c1.729,0.757,3.037,0.122,3.923-1.904l0.677,0.296l-4.438,10.146l-0.677-0.296c0.671-1.533,0.915-2.599,0.729-3.2
			c-0.186-0.6-0.639-1.201-1.359-1.804c-0.722-0.602-1.567-1.187-2.537-1.754l-50.335-31.069c-3.519-0.067-5.848,0.387-6.99,1.36
			c-1.143,0.972-1.964,2.031-2.465,3.177l-0.677-0.296l5.48-12.526l64.547,0.408L130.405,309.257z"/>
	</g>
	<g>
		<path fill="#D3A86A" d="M197.401,215.173l7.39-8.74l0.563,0.477c-2.346,3.081-2.053,5.862,0.879,8.342
			c0.627,0.53,1.556,1.187,2.786,1.969l46.863,29.64c2.386,1.416,4.056,2.151,5.012,2.208c0.955,0.056,2.077-0.553,3.368-1.826
			l0.563,0.477l-10.519,12.44l-0.563-0.477c1.453-1.615,1.357-3.118-0.286-4.507c-0.373-0.315-1.171-0.862-2.394-1.637
			l-45.464-28.697l29.036,58.583l-0.318,0.375l-62.615-18.718l36.142,40.189c0.536,0.625,1.203,1.274,1.998,1.947
			c1.441,1.219,2.875,0.984,4.304-0.705l0.563,0.477l-7.15,8.457l-0.563-0.477c1.081-1.278,1.618-2.23,1.612-2.859
			c-0.007-0.628-0.27-1.333-0.789-2.117c-0.519-0.783-1.163-1.584-1.93-2.405l-39.369-44.146c-3.354-1.068-5.716-1.299-7.088-0.693
			c-1.373,0.606-2.463,1.387-3.271,2.342l-0.563-0.477l8.828-10.44l61.745,18.819L197.401,215.173z"/>
	</g>
	<g>
		<path fill="#D3A86A" d="M228.235,186.495l-0.509-0.664l36.169-27.731l6.079,7.929l-0.585,0.449
			c-3.037-2.342-5.022-3.569-5.956-3.682c-0.934-0.111-2.442,0.631-4.525,2.228l-18.983,14.555l19.795,25.819l17.616-13.506
			c1.745-1.337,2.727-2.349,2.946-3.034c0.219-0.686,0.102-1.35-0.351-1.996l0.586-0.449l4.163,5.43l-0.586,0.449
			c-0.709-0.655-1.405-0.928-2.086-0.819c-0.681,0.11-1.673,0.663-2.975,1.661l-18.085,13.866l13.626,17.772
			c2.058,2.683,3.786,4.427,5.188,5.232c1.403,0.806,2.759,0.946,4.067,0.417c1.309-0.528,3.055-1.628,5.24-3.304l10.142-7.775
			c3.225-2.472,5.201-4.162,5.93-5.07c0.729-0.907,1.151-1.93,1.271-3.068c0.117-1.14-0.507-2.95-1.875-5.435l0.586-0.449
			l6.05,7.891l-39.333,30.157l-0.449-0.586c1.268-1.097,2.083-2.124,2.444-3.083c0.36-0.958-0.147-2.334-1.524-4.13l-35.613-46.45
			c-1.615-2.107-2.935-3.451-3.958-4.03C231.715,184.509,230.214,184.978,228.235,186.495z"/>
	</g>
	<g>
		<path fill="#D3A86A" d="M285.91,143.754l-0.329-0.661l18.424-9.156c4.672-2.321,8.103-3.897,10.292-4.728
			c2.188-0.832,4.666-1.21,7.432-1.136c2.766,0.075,5.201,0.825,7.304,2.256c2.103,1.43,3.871,3.586,5.303,6.467
			c1.637,3.294,2.205,6.927,1.705,10.897c-0.5,3.971-2.047,7.884-4.638,11.738l8.086,4.768c1.874,1.265,6.445,3.808,13.712,7.628
			s12.4,5.801,15.401,5.939c3,0.141,5.603-0.339,7.806-1.434c2.174-1.081,4.257-3.159,6.245-6.235l0.703,0.75
			c-2.092,4.632-5.956,8.347-11.592,11.147c-3.758,1.867-7.54,2.36-11.346,1.478c-3.807-0.881-11.541-4.649-23.204-11.304
			c-0.088-0.028-0.146-0.072-0.176-0.131l-11.516-6.801l-5.697,3.052l-5.255,2.611l12.336,24.824c0.991,1.994,1.964,3.295,2.918,3.9
			c0.953,0.605,2.435,0.409,4.443-0.589l0.329,0.661l-16.749,8.323l-0.329-0.661c2.042-1.125,3.124-2.211,3.245-3.259
			c0.119-1.049-0.426-2.792-1.637-5.229l-25.631-51.578c-0.832-1.674-1.742-2.952-2.729-3.833
			C289.776,142.575,288.157,142.674,285.91,143.754z M298.601,138.767l15.135,30.457l6.801-3.379
			c5.358-2.663,8.705-5.902,10.04-9.717c1.336-3.814,0.98-7.778-1.063-11.892c-1.985-3.995-5.139-7.146-9.46-9.451
			c-4.321-2.305-9.691-1.862-16.109,1.327L298.601,138.767z"/>
	</g>
	<g>
	</g>
	<g>
		<path fill="#D3A86A" d="M489.463,156.476l-13.643,1.56l-1.269-11.101c-6.054,8.52-13.883,13.328-23.491,14.426
			c-7.132,0.815-13.021-0.542-17.664-4.074c-4.644-3.532-7.369-8.834-8.178-15.909l-4.93-43.131
			c-0.298-2.607-0.797-4.226-1.497-4.857c-0.699-0.629-2.19-0.815-4.472-0.554l-0.084-0.733l19.12-2.186l0.084,0.733
			c-2.022,0.231-3.412,0.712-4.17,1.443c-0.759,0.731-1.002,2.287-0.73,4.666l4.522,39.561c0.947,8.281,3.56,13.968,7.838,17.062
			c4.28,3.094,8.894,4.359,13.843,3.794c7.782-0.89,14.284-5.184,19.506-12.881l-5.573-48.755c-0.488-4.271-1.153-6.762-1.994-7.476
			c-0.842-0.712-2.061-0.979-3.658-0.796l-0.685,0.078l-0.084-0.733l18.973-2.168l0.084,0.733c-2.333,0.4-3.763,0.959-4.292,1.68
			c-0.529,0.72-0.688,1.993-0.48,3.817l6.703,58.64c0.265,2.313,0.551,3.814,0.862,4.506c0.31,0.691,0.842,1.232,1.598,1.625
			c0.754,0.392,1.979,0.491,3.674,0.297L489.463,156.476z"/>
	</g>
	<g>
		<path fill="#D3A86A" d="M568.457,90.111l13.937,1.593l-0.084,0.734c-2.127-0.177-3.646,0.103-4.555,0.842
			c-0.911,0.738-1.519,2.444-1.824,5.117l-7.496,65.575L517.97,96.223l-6.089,53.264c-0.193,1.694-0.207,2.962-0.038,3.807
			c0.168,0.844,0.479,1.441,0.935,1.791c0.456,0.349,1.646,0.781,3.567,1.299l-0.084,0.733l-13.84-1.582l0.084-0.733
			c2.478,0.283,4.068,0.02,4.772-0.792c0.704-0.81,1.246-2.877,1.626-6.2l5.569-48.72c0.487-4.267,0.29-7.821-0.59-10.661
			c-0.882-2.84-3.484-4.409-7.81-4.705l0.084-0.734l13.545,1.548l47.415,63.657l5.812-50.837c0.313-2.737,0.015-4.463-0.896-5.177
			c-0.908-0.715-2.129-1.16-3.66-1.335L568.457,90.111z"/>
	</g>
	<g>
		<path fill="#D3A86A" d="M609.307,98.304l0.263-0.69l31.1,11.823c7.914,3.009,13.927,6.005,18.04,8.99s7.364,6.46,9.755,10.422
			c2.391,3.963,3.791,8.401,4.206,13.315c0.413,4.914-0.354,9.932-2.301,15.054c-1.878,4.938-4.758,9.398-8.642,13.381
			c-3.883,3.982-8.26,7.021-13.13,9.12c-4.87,2.098-9.517,3.034-13.942,2.808c-4.425-0.226-10.763-1.907-19.013-5.043
			l-31.837-12.103l0.263-0.69l0.828,0.314c1.657,0.63,2.998,0.377,4.026-0.758c1.028-1.134,2.208-3.449,3.536-6.943l18.755-49.331
			c1.397-3.678,1.927-6.02,1.59-7.025C612.466,99.943,611.301,99.062,609.307,98.304z M632.122,107.82l-10.397-3.952l-19.991,52.585
			c-1.259,3.312-1.637,5.986-1.128,8.022c0.507,2.035,1.974,3.928,4.399,5.674c2.424,1.747,5.922,3.489,10.492,5.227
			c12.697,4.827,22.854,4.958,30.469,0.395c7.615-4.564,12.887-10.696,15.813-18.395c3.439-9.047,2.899-18.223-1.621-27.523
			C655.638,120.551,646.292,113.207,632.122,107.82z"/>
	</g>
	<g>
	</g>
	<g>
		<path fill="#D3A86A" d="M734.829,158.177l0.51-0.664l36.17,27.731l-6.08,7.929l-0.586-0.449c1.475-3.541,2.145-5.777,2.011-6.708
			c-0.135-0.93-1.244-2.193-3.327-3.791l-18.983-14.554l-19.795,25.818l17.616,13.506c1.744,1.338,2.977,2.024,3.694,2.058
			c0.719,0.034,1.33-0.251,1.836-0.856l0.586,0.449l-4.163,5.429l-0.586-0.449c0.448-0.854,0.531-1.597,0.25-2.227
			c-0.282-0.629-1.074-1.444-2.376-2.442l-18.085-13.865l-13.626,17.772c-2.057,2.683-3.292,4.805-3.706,6.369
			c-0.415,1.564-0.196,2.909,0.652,4.035c0.85,1.127,2.366,2.527,4.552,4.203l10.142,7.775c3.224,2.472,5.369,3.942,6.434,4.41
			c1.066,0.468,2.164,0.611,3.294,0.431c1.13-0.182,2.717-1.255,4.761-3.221l0.586,0.449l-6.049,7.89l-39.333-30.157l0.449-0.586
			c1.388,0.94,2.59,1.46,3.609,1.56c1.02,0.1,2.218-0.748,3.595-2.543l35.613-46.45c1.615-2.107,2.568-3.73,2.863-4.869
			C737.65,161.022,736.808,159.694,734.829,158.177z"/>
	</g>
	<g>
		<path fill="#D3A86A" d="M827.59,249.432l-3.946,7.122l-0.48-0.541c0.57-9.888-2.3-18.389-8.612-25.502
			c-6.552-7.384-14.043-11.401-22.474-12.053c-8.432-0.651-15.764,1.789-21.997,7.32c-3.854,3.419-7.386,8.363-10.596,14.83
			c-3.21,6.468-4.49,13.319-3.841,20.551c0.648,7.232,3.729,13.953,9.238,20.163c3.615,4.073,7.815,7.486,12.603,10.236
			c4.786,2.749,9.135,4.102,13.042,4.056l0.277,0.609l-9.181,1.37c-6.771-4.961-11.09-8.247-12.958-9.855
			c-1.867-1.612-4.163-3.951-6.885-7.019c-10.084-11.364-14.665-21.83-13.745-31.397c0.919-9.568,5.048-17.607,12.387-24.12
			c4.957-4.399,10.841-7.372,17.651-8.917c6.809-1.547,13.635-1.122,20.477,1.273c6.841,2.396,12.963,6.637,18.364,12.725
			c2.699,3.042,4.76,5.92,6.179,8.631c1.419,2.711,2.487,5.065,3.205,7.061l1.235,3.245
			C827.573,249.315,827.593,249.386,827.59,249.432z"/>
	</g>
	<g>
		<path fill="#D3A86A" d="M842.964,338.46l-18.581-35.217l-24.648,13.005c-2.318,1.223-3.739,2.112-4.262,2.666
			c-0.522,0.554-0.845,1.243-0.966,2.067s0.21,1.977,0.991,3.457l-0.653,0.345l-8.75-16.586l0.652-0.345
			c1.389,3.125,3.65,3.862,6.783,2.209l51.549-27.198c2.929-1.545,4.658-2.764,5.188-3.657c0.53-0.891,0.296-2.391-0.704-4.497
			l0.652-0.344l8.751,16.586l-0.653,0.344c-1.08-1.767-2.08-2.817-2.996-3.149c-0.918-0.333-2.276-0.024-4.075,0.925l-25.074,13.229
			l18.581,35.217l22.941-12.104c2.611-1.378,4.271-2.541,4.977-3.487c0.705-0.949,0.515-2.453-0.572-4.512l0.652-0.344l8.637,16.368
			l-0.652,0.344c-0.684-1.294-1.344-2.176-1.982-2.649c-0.639-0.471-1.336-0.653-2.096-0.547c-0.759,0.107-2.443,0.849-5.054,2.226
			l-49.2,25.958c-2.523,1.332-4.036,2.277-4.538,2.835c-0.503,0.56-0.806,1.233-0.907,2.023c-0.104,0.789,0.218,1.887,0.961,3.296
			l-0.653,0.345l-8.636-16.368l0.652-0.345c0.934,1.77,1.92,2.761,2.959,2.974c1.038,0.212,3.151-0.522,6.34-2.205L842.964,338.46z"
			/>
	</g>
	<g>
		<path fill="#D3A86A" d="M909.253,411.28l-9.379-0.804l-0.211-0.708c0.54-0.023,1.235-0.162,2.085-0.414
			c0.723-0.215,1.109-0.614,1.161-1.191c0.05-0.579-0.093-1.433-0.43-2.563l-5.391-18.122l-59.447,17.684
			c-2.451,0.729-4.066,1.423-4.845,2.083c-0.779,0.66-1.187,1.363-1.221,2.109c-0.034,0.746,0.173,1.875,0.622,3.384l-0.707,0.21
			l-5.6-18.823l0.708-0.21c0.858,2.312,1.754,3.655,2.687,4.028c0.932,0.373,2.592,0.204,4.98-0.507l60.438-17.978l-5.168-17.369
			c-0.521-1.758-0.965-2.873-1.328-3.345c-0.363-0.472-0.954-0.587-1.771-0.345c-0.409,0.122-1.001,0.435-1.775,0.939l-0.21-0.708
			l7.415-5.801l0.21,0.708c-0.964,0.901-1.482,1.663-1.555,2.283c-0.072,0.62,0.162,1.839,0.704,3.661l13.716,46.11
			c0.542,1.82,1.05,3.097,1.523,3.827c0.474,0.73,1.334,1.116,2.577,1.156L909.253,411.28z"/>
	</g>
</g>
<g>
</g>
<g>
</g>
<g>
</g>
<g>
</g>
<g>
</g>
<g>
</g>
<g>
</g>
<g>
</g>
<g>
</g>
<g>
</g>
<g>
</g>
<g>
</g>
<g>
</g>
<g>
</g>
<g>
</g>
</svg>
